<?xml version="1.0" encoding="utf-8"?>
<svg xmlns="http://www.w3.org/2000/svg" xmlns:xlink="http://www.w3.org/1999/xlink" width="600" height="400" viewBox="0 0 2400 1600">
<defs>
  <clipPath id="clip110">
    <rect x="0" y="0" width="2400" height="1600"/>
  </clipPath>
</defs>
<path clip-path="url(#clip110)" d="M0 1600 L2400 1600 L2400 0 L0 0  Z" fill="#ffffff" fill-rule="evenodd" fill-opacity="1"/>
<defs>
  <clipPath id="clip111">
    <rect x="480" y="0" width="1681" height="1600"/>
  </clipPath>
</defs>
<path clip-path="url(#clip110)" d="M232.038 1410.22 L2352.76 1410.22 L2352.76 47.2441 L232.038 47.2441  Z" fill="#ffffff" fill-rule="evenodd" fill-opacity="1"/>
<defs>
  <clipPath id="clip112">
    <rect x="232" y="47" width="2122" height="1364"/>
  </clipPath>
</defs>
<polyline clip-path="url(#clip112)" style="stroke:#000000; stroke-linecap:round; stroke-linejoin:round; stroke-width:2; stroke-opacity:0.1; fill:none" points="463.191,1410.22 463.191,47.2441 "/>
<polyline clip-path="url(#clip112)" style="stroke:#000000; stroke-linecap:round; stroke-linejoin:round; stroke-width:2; stroke-opacity:0.1; fill:none" points="858.051,1410.22 858.051,47.2441 "/>
<polyline clip-path="url(#clip112)" style="stroke:#000000; stroke-linecap:round; stroke-linejoin:round; stroke-width:2; stroke-opacity:0.1; fill:none" points="1252.91,1410.22 1252.91,47.2441 "/>
<polyline clip-path="url(#clip112)" style="stroke:#000000; stroke-linecap:round; stroke-linejoin:round; stroke-width:2; stroke-opacity:0.1; fill:none" points="1647.77,1410.22 1647.77,47.2441 "/>
<polyline clip-path="url(#clip112)" style="stroke:#000000; stroke-linecap:round; stroke-linejoin:round; stroke-width:2; stroke-opacity:0.1; fill:none" points="2042.63,1410.22 2042.63,47.2441 "/>
<polyline clip-path="url(#clip112)" style="stroke:#000000; stroke-linecap:round; stroke-linejoin:round; stroke-width:2; stroke-opacity:0.1; fill:none" points="232.038,1136.53 2352.76,1136.53 "/>
<polyline clip-path="url(#clip112)" style="stroke:#000000; stroke-linecap:round; stroke-linejoin:round; stroke-width:2; stroke-opacity:0.1; fill:none" points="232.038,589.149 2352.76,589.149 "/>
<polyline clip-path="url(#clip110)" style="stroke:#000000; stroke-linecap:round; stroke-linejoin:round; stroke-width:4; stroke-opacity:1; fill:none" points="232.038,1410.22 2352.76,1410.22 "/>
<polyline clip-path="url(#clip110)" style="stroke:#000000; stroke-linecap:round; stroke-linejoin:round; stroke-width:4; stroke-opacity:1; fill:none" points="463.191,1410.22 463.191,1391.32 "/>
<polyline clip-path="url(#clip110)" style="stroke:#000000; stroke-linecap:round; stroke-linejoin:round; stroke-width:4; stroke-opacity:1; fill:none" points="858.051,1410.22 858.051,1391.32 "/>
<polyline clip-path="url(#clip110)" style="stroke:#000000; stroke-linecap:round; stroke-linejoin:round; stroke-width:4; stroke-opacity:1; fill:none" points="1252.91,1410.22 1252.91,1391.32 "/>
<polyline clip-path="url(#clip110)" style="stroke:#000000; stroke-linecap:round; stroke-linejoin:round; stroke-width:4; stroke-opacity:1; fill:none" points="1647.77,1410.22 1647.77,1391.32 "/>
<polyline clip-path="url(#clip110)" style="stroke:#000000; stroke-linecap:round; stroke-linejoin:round; stroke-width:4; stroke-opacity:1; fill:none" points="2042.63,1410.22 2042.63,1391.32 "/>
<path clip-path="url(#clip110)" d="M376.536 1462.07 Q376.536 1454.68 378.766 1449.36 Q380.996 1444.01 384.691 1441.4 Q387.559 1439.33 390.617 1439.33 Q395.587 1439.33 399.538 1444.39 Q404.476 1450.67 404.476 1461.41 Q404.476 1468.92 402.309 1474.18 Q400.143 1479.44 396.766 1481.83 Q393.421 1484.18 390.299 1484.18 Q384.118 1484.18 380.008 1476.89 Q376.536 1470.74 376.536 1462.07 M382.78 1462.87 Q382.78 1471.79 384.978 1477.43 Q386.794 1482.18 390.394 1482.18 Q392.115 1482.18 393.962 1480.65 Q395.81 1479.09 396.766 1475.46 Q398.231 1469.98 398.231 1460 Q398.231 1452.61 396.702 1447.67 Q395.555 1444.01 393.739 1442.48 Q392.433 1441.43 390.585 1441.43 Q388.419 1441.43 386.73 1443.37 Q384.437 1446.02 383.608 1451.69 Q382.78 1457.36 382.78 1462.87 Z" fill="#000000" fill-rule="nonzero" fill-opacity="1" /><path clip-path="url(#clip110)" d="M414.957 1477.24 Q416.454 1477.24 417.474 1478.29 Q418.493 1479.31 418.493 1480.78 Q418.493 1482.24 417.442 1483.29 Q416.422 1484.31 414.957 1484.31 Q413.491 1484.31 412.44 1483.29 Q411.421 1482.24 411.421 1480.78 Q411.421 1479.28 412.44 1478.26 Q413.491 1477.24 414.957 1477.24 Z" fill="#000000" fill-rule="nonzero" fill-opacity="1" /><path clip-path="url(#clip110)" d="M451.435 1440.22 L448.95 1445.64 L435.952 1445.64 L433.116 1451.43 Q441.559 1452.68 446.497 1457.71 Q450.734 1462.04 450.734 1467.9 Q450.734 1471.31 449.332 1474.21 Q447.962 1477.11 445.86 1479.15 Q443.757 1481.19 441.176 1482.43 Q437.513 1484.18 433.658 1484.18 Q429.771 1484.18 427.987 1482.88 Q426.235 1481.54 426.235 1479.95 Q426.235 1479.06 426.968 1478.39 Q427.7 1477.69 428.815 1477.69 Q429.644 1477.69 430.249 1477.94 Q430.886 1478.2 432.384 1479.25 Q434.773 1480.9 437.226 1480.9 Q440.953 1480.9 443.757 1478.1 Q446.592 1475.26 446.592 1471.22 Q446.592 1467.3 444.076 1463.92 Q441.559 1460.51 437.13 1458.67 Q433.658 1457.23 427.668 1457.01 L435.952 1440.22 L451.435 1440.22 Z" fill="#000000" fill-rule="nonzero" fill-opacity="1" /><path clip-path="url(#clip110)" d="M484.982 1439.33 L484.982 1440.51 Q480.776 1440.92 478.1 1442.2 Q475.456 1443.44 472.844 1446.02 Q470.263 1448.6 468.543 1451.78 Q466.854 1454.94 465.707 1459.3 Q470.295 1456.15 474.915 1456.15 Q479.343 1456.15 482.592 1459.72 Q485.842 1463.29 485.842 1468.89 Q485.842 1474.31 482.561 1478.77 Q478.61 1484.18 472.111 1484.18 Q467.683 1484.18 464.592 1481.25 Q458.539 1475.55 458.539 1466.47 Q458.539 1460.67 460.865 1455.45 Q463.191 1450.22 467.491 1446.18 Q471.824 1442.13 475.775 1440.73 Q479.725 1439.33 483.134 1439.33 L484.982 1439.33 M465.166 1461.63 Q464.592 1465.93 464.592 1468.57 Q464.592 1471.63 465.707 1475.23 Q466.854 1478.8 469.084 1480.9 Q470.709 1482.4 473.035 1482.4 Q475.807 1482.4 477.973 1479.79 Q480.171 1477.18 480.171 1472.33 Q480.171 1466.89 478.005 1462.9 Q475.838 1458.92 471.856 1458.92 Q470.645 1458.92 469.244 1459.43 Q467.874 1459.94 465.166 1461.63 Z" fill="#000000" fill-rule="nonzero" fill-opacity="1" /><path clip-path="url(#clip110)" d="M490.716 1462.07 Q490.716 1454.68 492.946 1449.36 Q495.176 1444.01 498.872 1441.4 Q501.739 1439.33 504.798 1439.33 Q509.768 1439.33 513.718 1444.39 Q518.656 1450.67 518.656 1461.41 Q518.656 1468.92 516.49 1474.18 Q514.323 1479.44 510.946 1481.83 Q507.601 1484.18 504.479 1484.18 Q498.299 1484.18 494.189 1476.89 Q490.716 1470.74 490.716 1462.07 M496.961 1462.87 Q496.961 1471.79 499.159 1477.43 Q500.975 1482.18 504.575 1482.18 Q506.295 1482.18 508.143 1480.65 Q509.991 1479.09 510.946 1475.46 Q512.412 1469.98 512.412 1460 Q512.412 1452.61 510.883 1447.67 Q509.736 1444.01 507.92 1442.48 Q506.614 1441.43 504.766 1441.43 Q502.599 1441.43 500.911 1443.37 Q498.617 1446.02 497.789 1451.69 Q496.961 1457.36 496.961 1462.87 Z" fill="#000000" fill-rule="nonzero" fill-opacity="1" /><path clip-path="url(#clip110)" d="M533.502 1461.66 Q528.373 1457.46 526.876 1454.91 Q525.41 1452.36 525.41 1449.62 Q525.41 1445.41 528.66 1442.39 Q531.909 1439.33 537.293 1439.33 Q542.518 1439.33 545.704 1442.16 Q548.89 1445 548.89 1448.63 Q548.89 1451.05 547.169 1453.57 Q545.449 1456.09 540.001 1459.49 Q545.608 1463.83 547.424 1466.31 Q549.845 1469.56 549.845 1473.16 Q549.845 1477.72 546.373 1480.97 Q542.9 1484.18 537.261 1484.18 Q531.113 1484.18 527.672 1480.33 Q524.932 1477.24 524.932 1473.58 Q524.932 1470.71 526.844 1467.9 Q528.787 1465.07 533.502 1461.66 M538.504 1458.25 Q542.327 1454.81 543.346 1452.84 Q544.366 1450.83 544.366 1448.31 Q544.366 1444.97 542.486 1443.09 Q540.607 1441.18 537.357 1441.18 Q534.107 1441.18 532.068 1443.06 Q530.03 1444.93 530.03 1447.45 Q530.03 1449.11 530.858 1450.76 Q531.718 1452.42 533.279 1453.92 L538.504 1458.25 M534.999 1462.87 Q532.355 1465.1 531.081 1467.75 Q529.807 1470.36 529.807 1473.42 Q529.807 1477.53 532.037 1480.01 Q534.299 1482.46 537.771 1482.46 Q541.212 1482.46 543.283 1480.52 Q545.353 1478.58 545.353 1475.81 Q545.353 1473.51 544.143 1471.7 Q541.881 1468.32 534.999 1462.87 Z" fill="#000000" fill-rule="nonzero" fill-opacity="1" /><path clip-path="url(#clip110)" d="M770.679 1462.07 Q770.679 1454.68 772.909 1449.36 Q775.139 1444.01 778.835 1441.4 Q781.702 1439.33 784.76 1439.33 Q789.73 1439.33 793.681 1444.39 Q798.619 1450.67 798.619 1461.41 Q798.619 1468.92 796.453 1474.18 Q794.286 1479.44 790.909 1481.83 Q787.564 1484.18 784.442 1484.18 Q778.261 1484.18 774.152 1476.89 Q770.679 1470.74 770.679 1462.07 M776.923 1462.87 Q776.923 1471.79 779.122 1477.43 Q780.937 1482.18 784.537 1482.18 Q786.258 1482.18 788.106 1480.65 Q789.953 1479.09 790.909 1475.46 Q792.375 1469.98 792.375 1460 Q792.375 1452.61 790.845 1447.67 Q789.699 1444.01 787.883 1442.48 Q786.576 1441.43 784.729 1441.43 Q782.562 1441.43 780.874 1443.37 Q778.58 1446.02 777.752 1451.69 Q776.923 1457.36 776.923 1462.87 Z" fill="#000000" fill-rule="nonzero" fill-opacity="1" /><path clip-path="url(#clip110)" d="M809.1 1477.24 Q810.598 1477.24 811.617 1478.29 Q812.637 1479.31 812.637 1480.78 Q812.637 1482.24 811.585 1483.29 Q810.566 1484.31 809.1 1484.31 Q807.635 1484.31 806.583 1483.29 Q805.564 1482.24 805.564 1480.78 Q805.564 1479.28 806.583 1478.26 Q807.635 1477.24 809.1 1477.24 Z" fill="#000000" fill-rule="nonzero" fill-opacity="1" /><path clip-path="url(#clip110)" d="M845.578 1440.22 L843.093 1445.64 L830.095 1445.64 L827.26 1451.43 Q835.702 1452.68 840.64 1457.71 Q844.877 1462.04 844.877 1467.9 Q844.877 1471.31 843.476 1474.21 Q842.106 1477.11 840.003 1479.15 Q837.9 1481.19 835.32 1482.43 Q831.656 1484.18 827.801 1484.18 Q823.914 1484.18 822.13 1482.88 Q820.378 1481.54 820.378 1479.95 Q820.378 1479.06 821.111 1478.39 Q821.844 1477.69 822.959 1477.69 Q823.787 1477.69 824.392 1477.94 Q825.03 1478.2 826.527 1479.25 Q828.916 1480.9 831.369 1480.9 Q835.097 1480.9 837.9 1478.1 Q840.736 1475.26 840.736 1471.22 Q840.736 1467.3 838.219 1463.92 Q835.702 1460.51 831.274 1458.67 Q827.801 1457.23 821.812 1457.01 L830.095 1440.22 L845.578 1440.22 Z" fill="#000000" fill-rule="nonzero" fill-opacity="1" /><path clip-path="url(#clip110)" d="M879.125 1439.33 L879.125 1440.51 Q874.92 1440.92 872.244 1442.2 Q869.599 1443.44 866.987 1446.02 Q864.407 1448.6 862.686 1451.78 Q860.998 1454.94 859.851 1459.3 Q864.438 1456.15 869.058 1456.15 Q873.486 1456.15 876.736 1459.72 Q879.985 1463.29 879.985 1468.89 Q879.985 1474.31 876.704 1478.77 Q872.753 1484.18 866.254 1484.18 Q861.826 1484.18 858.736 1481.25 Q852.683 1475.55 852.683 1466.47 Q852.683 1460.67 855.008 1455.45 Q857.334 1450.22 861.635 1446.18 Q865.968 1442.13 869.918 1440.73 Q873.868 1439.33 877.277 1439.33 L879.125 1439.33 M859.309 1461.63 Q858.736 1465.93 858.736 1468.57 Q858.736 1471.63 859.851 1475.23 Q860.998 1478.8 863.228 1480.9 Q864.853 1482.4 867.178 1482.4 Q869.95 1482.4 872.116 1479.79 Q874.314 1477.18 874.314 1472.33 Q874.314 1466.89 872.148 1462.9 Q869.982 1458.92 865.999 1458.92 Q864.789 1458.92 863.387 1459.43 Q862.017 1459.94 859.309 1461.63 Z" fill="#000000" fill-rule="nonzero" fill-opacity="1" /><path clip-path="url(#clip110)" d="M890.148 1444.46 L900.661 1439.33 L901.713 1439.33 L901.713 1475.81 Q901.713 1479.44 901.999 1480.33 Q902.318 1481.22 903.274 1481.7 Q904.23 1482.18 907.16 1482.24 L907.16 1483.42 L890.913 1483.42 L890.913 1482.24 Q893.971 1482.18 894.863 1481.73 Q895.755 1481.25 896.106 1480.49 Q896.456 1479.69 896.456 1475.81 L896.456 1452.49 Q896.456 1447.77 896.137 1446.43 Q895.914 1445.41 895.309 1444.93 Q894.736 1444.46 893.907 1444.46 Q892.729 1444.46 890.626 1445.44 L890.148 1444.46 Z" fill="#000000" fill-rule="nonzero" fill-opacity="1" /><path clip-path="url(#clip110)" d="M917.483 1462.07 Q917.483 1454.68 919.713 1449.36 Q921.943 1444.01 925.638 1441.4 Q928.506 1439.33 931.564 1439.33 Q936.534 1439.33 940.484 1444.39 Q945.422 1450.67 945.422 1461.41 Q945.422 1468.92 943.256 1474.18 Q941.09 1479.44 937.713 1481.83 Q934.368 1484.18 931.245 1484.18 Q925.065 1484.18 920.955 1476.89 Q917.483 1470.74 917.483 1462.07 M923.727 1462.87 Q923.727 1471.79 925.925 1477.43 Q927.741 1482.18 931.341 1482.18 Q933.061 1482.18 934.909 1480.65 Q936.757 1479.09 937.713 1475.46 Q939.178 1469.98 939.178 1460 Q939.178 1452.61 937.649 1447.67 Q936.502 1444.01 934.686 1442.48 Q933.38 1441.43 931.532 1441.43 Q929.366 1441.43 927.677 1443.37 Q925.383 1446.02 924.555 1451.69 Q923.727 1457.36 923.727 1462.87 Z" fill="#000000" fill-rule="nonzero" fill-opacity="1" /><path clip-path="url(#clip110)" d="M1165.73 1462.07 Q1165.73 1454.68 1167.96 1449.36 Q1170.19 1444.01 1173.89 1441.4 Q1176.75 1439.33 1179.81 1439.33 Q1184.78 1439.33 1188.73 1444.39 Q1193.67 1450.67 1193.67 1461.41 Q1193.67 1468.92 1191.5 1474.18 Q1189.34 1479.44 1185.96 1481.83 Q1182.62 1484.18 1179.49 1484.18 Q1173.31 1484.18 1169.2 1476.89 Q1165.73 1470.74 1165.73 1462.07 M1171.97 1462.87 Q1171.97 1471.79 1174.17 1477.43 Q1175.99 1482.18 1179.59 1482.18 Q1181.31 1482.18 1183.16 1480.65 Q1185 1479.09 1185.96 1475.46 Q1187.43 1469.98 1187.43 1460 Q1187.43 1452.61 1185.9 1447.67 Q1184.75 1444.01 1182.93 1442.48 Q1181.63 1441.43 1179.78 1441.43 Q1177.61 1441.43 1175.93 1443.37 Q1173.63 1446.02 1172.8 1451.69 Q1171.97 1457.36 1171.97 1462.87 Z" fill="#000000" fill-rule="nonzero" fill-opacity="1" /><path clip-path="url(#clip110)" d="M1204.15 1477.24 Q1205.65 1477.24 1206.67 1478.29 Q1207.69 1479.31 1207.69 1480.78 Q1207.69 1482.24 1206.64 1483.29 Q1205.62 1484.31 1204.15 1484.31 Q1202.69 1484.31 1201.63 1483.29 Q1200.62 1482.24 1200.62 1480.78 Q1200.62 1479.28 1201.63 1478.26 Q1202.69 1477.24 1204.15 1477.24 Z" fill="#000000" fill-rule="nonzero" fill-opacity="1" /><path clip-path="url(#clip110)" d="M1240.63 1440.22 L1238.14 1445.64 L1225.15 1445.64 L1222.31 1451.43 Q1230.75 1452.68 1235.69 1457.71 Q1239.93 1462.04 1239.93 1467.9 Q1239.93 1471.31 1238.53 1474.21 Q1237.16 1477.11 1235.05 1479.15 Q1232.95 1481.19 1230.37 1482.43 Q1226.71 1484.18 1222.85 1484.18 Q1218.97 1484.18 1217.18 1482.88 Q1215.43 1481.54 1215.43 1479.95 Q1215.43 1479.06 1216.16 1478.39 Q1216.89 1477.69 1218.01 1477.69 Q1218.84 1477.69 1219.44 1477.94 Q1220.08 1478.2 1221.58 1479.25 Q1223.97 1480.9 1226.42 1480.9 Q1230.15 1480.9 1232.95 1478.1 Q1235.79 1475.26 1235.79 1471.22 Q1235.79 1467.3 1233.27 1463.92 Q1230.75 1460.51 1226.33 1458.67 Q1222.85 1457.23 1216.86 1457.01 L1225.15 1440.22 L1240.63 1440.22 Z" fill="#000000" fill-rule="nonzero" fill-opacity="1" /><path clip-path="url(#clip110)" d="M1274.18 1439.33 L1274.18 1440.51 Q1269.97 1440.92 1267.29 1442.2 Q1264.65 1443.44 1262.04 1446.02 Q1259.46 1448.6 1257.74 1451.78 Q1256.05 1454.94 1254.9 1459.3 Q1259.49 1456.15 1264.11 1456.15 Q1268.54 1456.15 1271.79 1459.72 Q1275.04 1463.29 1275.04 1468.89 Q1275.04 1474.31 1271.76 1478.77 Q1267.8 1484.18 1261.31 1484.18 Q1256.88 1484.18 1253.79 1481.25 Q1247.73 1475.55 1247.73 1466.47 Q1247.73 1460.67 1250.06 1455.45 Q1252.39 1450.22 1256.69 1446.18 Q1261.02 1442.13 1264.97 1440.73 Q1268.92 1439.33 1272.33 1439.33 L1274.18 1439.33 M1254.36 1461.63 Q1253.79 1465.93 1253.79 1468.57 Q1253.79 1471.63 1254.9 1475.23 Q1256.05 1478.8 1258.28 1480.9 Q1259.9 1482.4 1262.23 1482.4 Q1265 1482.4 1267.17 1479.79 Q1269.37 1477.18 1269.37 1472.33 Q1269.37 1466.89 1267.2 1462.9 Q1265.03 1458.92 1261.05 1458.92 Q1259.84 1458.92 1258.44 1459.43 Q1257.07 1459.94 1254.36 1461.63 Z" fill="#000000" fill-rule="nonzero" fill-opacity="1" /><path clip-path="url(#clip110)" d="M1285.2 1444.46 L1295.71 1439.33 L1296.76 1439.33 L1296.76 1475.81 Q1296.76 1479.44 1297.05 1480.33 Q1297.37 1481.22 1298.33 1481.7 Q1299.28 1482.18 1302.21 1482.24 L1302.21 1483.42 L1285.96 1483.42 L1285.96 1482.24 Q1289.02 1482.18 1289.91 1481.73 Q1290.81 1481.25 1291.16 1480.49 Q1291.51 1479.69 1291.51 1475.81 L1291.51 1452.49 Q1291.51 1447.77 1291.19 1446.43 Q1290.97 1445.41 1290.36 1444.93 Q1289.79 1444.46 1288.96 1444.46 Q1287.78 1444.46 1285.68 1445.44 L1285.2 1444.46 Z" fill="#000000" fill-rule="nonzero" fill-opacity="1" /><path clip-path="url(#clip110)" d="M1340.09 1475.1 L1337.06 1483.42 L1311.58 1483.42 L1311.58 1482.24 Q1322.82 1471.98 1327.41 1465.48 Q1332 1458.98 1332 1453.6 Q1332 1449.49 1329.48 1446.85 Q1326.97 1444.2 1323.46 1444.2 Q1320.28 1444.2 1317.73 1446.08 Q1315.21 1447.93 1314 1451.53 L1312.82 1451.53 Q1313.62 1445.64 1316.9 1442.48 Q1320.21 1439.33 1325.15 1439.33 Q1330.41 1439.33 1333.91 1442.7 Q1337.45 1446.08 1337.45 1450.67 Q1337.45 1453.95 1335.92 1457.23 Q1333.56 1462.39 1328.27 1468.16 Q1320.34 1476.83 1318.36 1478.61 L1329.64 1478.61 Q1333.08 1478.61 1334.45 1478.35 Q1335.85 1478.1 1336.97 1477.33 Q1338.08 1476.54 1338.91 1475.1 L1340.09 1475.1 Z" fill="#000000" fill-rule="nonzero" fill-opacity="1" /><path clip-path="url(#clip110)" d="M1560.37 1462.07 Q1560.37 1454.68 1562.6 1449.36 Q1564.83 1444.01 1568.52 1441.4 Q1571.39 1439.33 1574.45 1439.33 Q1579.42 1439.33 1583.37 1444.39 Q1588.31 1450.67 1588.31 1461.41 Q1588.31 1468.92 1586.14 1474.18 Q1583.97 1479.44 1580.6 1481.83 Q1577.25 1484.18 1574.13 1484.18 Q1567.95 1484.18 1563.84 1476.89 Q1560.37 1470.74 1560.37 1462.07 M1566.61 1462.87 Q1566.61 1471.79 1568.81 1477.43 Q1570.63 1482.18 1574.23 1482.18 Q1575.95 1482.18 1577.79 1480.65 Q1579.64 1479.09 1580.6 1475.46 Q1582.06 1469.98 1582.06 1460 Q1582.06 1452.61 1580.53 1447.67 Q1579.39 1444.01 1577.57 1442.48 Q1576.26 1441.43 1574.42 1441.43 Q1572.25 1441.43 1570.56 1443.37 Q1568.27 1446.02 1567.44 1451.69 Q1566.61 1457.36 1566.61 1462.87 Z" fill="#000000" fill-rule="nonzero" fill-opacity="1" /><path clip-path="url(#clip110)" d="M1598.79 1477.24 Q1600.29 1477.24 1601.31 1478.29 Q1602.33 1479.31 1602.33 1480.78 Q1602.33 1482.24 1601.27 1483.29 Q1600.25 1484.31 1598.79 1484.31 Q1597.32 1484.31 1596.27 1483.29 Q1595.25 1482.24 1595.25 1480.78 Q1595.25 1479.28 1596.27 1478.26 Q1597.32 1477.24 1598.79 1477.24 Z" fill="#000000" fill-rule="nonzero" fill-opacity="1" /><path clip-path="url(#clip110)" d="M1635.27 1440.22 L1632.78 1445.64 L1619.78 1445.64 L1616.95 1451.43 Q1625.39 1452.68 1630.33 1457.71 Q1634.57 1462.04 1634.57 1467.9 Q1634.57 1471.31 1633.16 1474.21 Q1631.79 1477.11 1629.69 1479.15 Q1627.59 1481.19 1625.01 1482.43 Q1621.34 1484.18 1617.49 1484.18 Q1613.6 1484.18 1611.82 1482.88 Q1610.07 1481.54 1610.07 1479.95 Q1610.07 1479.06 1610.8 1478.39 Q1611.53 1477.69 1612.65 1477.69 Q1613.48 1477.69 1614.08 1477.94 Q1614.72 1478.2 1616.22 1479.25 Q1618.6 1480.9 1621.06 1480.9 Q1624.79 1480.9 1627.59 1478.1 Q1630.42 1475.26 1630.42 1471.22 Q1630.42 1467.3 1627.91 1463.92 Q1625.39 1460.51 1620.96 1458.67 Q1617.49 1457.23 1611.5 1457.01 L1619.78 1440.22 L1635.27 1440.22 Z" fill="#000000" fill-rule="nonzero" fill-opacity="1" /><path clip-path="url(#clip110)" d="M1668.81 1439.33 L1668.81 1440.51 Q1664.61 1440.92 1661.93 1442.2 Q1659.29 1443.44 1656.68 1446.02 Q1654.09 1448.6 1652.37 1451.78 Q1650.69 1454.94 1649.54 1459.3 Q1654.13 1456.15 1658.75 1456.15 Q1663.17 1456.15 1666.42 1459.72 Q1669.67 1463.29 1669.67 1468.89 Q1669.67 1474.31 1666.39 1478.77 Q1662.44 1484.18 1655.94 1484.18 Q1651.51 1484.18 1648.42 1481.25 Q1642.37 1475.55 1642.37 1466.47 Q1642.37 1460.67 1644.7 1455.45 Q1647.02 1450.22 1651.32 1446.18 Q1655.66 1442.13 1659.61 1440.73 Q1663.56 1439.33 1666.97 1439.33 L1668.81 1439.33 M1649 1461.63 Q1648.42 1465.93 1648.42 1468.57 Q1648.42 1471.63 1649.54 1475.23 Q1650.69 1478.8 1652.92 1480.9 Q1654.54 1482.4 1656.87 1482.4 Q1659.64 1482.4 1661.8 1479.79 Q1664 1477.18 1664 1472.33 Q1664 1466.89 1661.84 1462.9 Q1659.67 1458.92 1655.69 1458.92 Q1654.48 1458.92 1653.08 1459.43 Q1651.71 1459.94 1649 1461.63 Z" fill="#000000" fill-rule="nonzero" fill-opacity="1" /><path clip-path="url(#clip110)" d="M1679.84 1444.46 L1690.35 1439.33 L1691.4 1439.33 L1691.4 1475.81 Q1691.4 1479.44 1691.69 1480.33 Q1692.01 1481.22 1692.96 1481.7 Q1693.92 1482.18 1696.85 1482.24 L1696.85 1483.42 L1680.6 1483.42 L1680.6 1482.24 Q1683.66 1482.18 1684.55 1481.73 Q1685.44 1481.25 1685.79 1480.49 Q1686.14 1479.69 1686.14 1475.81 L1686.14 1452.49 Q1686.14 1447.77 1685.83 1446.43 Q1685.6 1445.41 1685 1444.93 Q1684.42 1444.46 1683.6 1444.46 Q1682.42 1444.46 1680.31 1445.44 L1679.84 1444.46 Z" fill="#000000" fill-rule="nonzero" fill-opacity="1" /><path clip-path="url(#clip110)" d="M1735.17 1467.49 L1735.17 1472.01 L1729.38 1472.01 L1729.38 1483.42 L1724.12 1483.42 L1724.12 1472.01 L1705.83 1472.01 L1705.83 1467.94 L1725.87 1439.33 L1729.38 1439.33 L1729.38 1467.49 L1735.17 1467.49 M1724.12 1467.49 L1724.12 1446.05 L1708.96 1467.49 L1724.12 1467.49 Z" fill="#000000" fill-rule="nonzero" fill-opacity="1" /><path clip-path="url(#clip110)" d="M1955.36 1462.07 Q1955.36 1454.68 1957.59 1449.36 Q1959.82 1444.01 1963.51 1441.4 Q1966.38 1439.33 1969.44 1439.33 Q1974.41 1439.33 1978.36 1444.39 Q1983.29 1450.67 1983.29 1461.41 Q1983.29 1468.92 1981.13 1474.18 Q1978.96 1479.44 1975.59 1481.83 Q1972.24 1484.18 1969.12 1484.18 Q1962.94 1484.18 1958.83 1476.89 Q1955.36 1470.74 1955.36 1462.07 M1961.6 1462.87 Q1961.6 1471.79 1963.8 1477.43 Q1965.61 1482.18 1969.21 1482.18 Q1970.93 1482.18 1972.78 1480.65 Q1974.63 1479.09 1975.59 1475.46 Q1977.05 1469.98 1977.05 1460 Q1977.05 1452.61 1975.52 1447.67 Q1974.37 1444.01 1972.56 1442.48 Q1971.25 1441.43 1969.4 1441.43 Q1967.24 1441.43 1965.55 1443.37 Q1963.26 1446.02 1962.43 1451.69 Q1961.6 1457.36 1961.6 1462.87 Z" fill="#000000" fill-rule="nonzero" fill-opacity="1" /><path clip-path="url(#clip110)" d="M1993.78 1477.24 Q1995.27 1477.24 1996.29 1478.29 Q1997.31 1479.31 1997.31 1480.78 Q1997.31 1482.24 1996.26 1483.29 Q1995.24 1484.31 1993.78 1484.31 Q1992.31 1484.31 1991.26 1483.29 Q1990.24 1482.24 1990.24 1480.78 Q1990.24 1479.28 1991.26 1478.26 Q1992.31 1477.24 1993.78 1477.24 Z" fill="#000000" fill-rule="nonzero" fill-opacity="1" /><path clip-path="url(#clip110)" d="M2030.25 1440.22 L2027.77 1445.64 L2014.77 1445.64 L2011.94 1451.43 Q2020.38 1452.68 2025.32 1457.71 Q2029.55 1462.04 2029.55 1467.9 Q2029.55 1471.31 2028.15 1474.21 Q2026.78 1477.11 2024.68 1479.15 Q2022.58 1481.19 2020 1482.43 Q2016.33 1484.18 2012.48 1484.18 Q2008.59 1484.18 2006.81 1482.88 Q2005.05 1481.54 2005.05 1479.95 Q2005.05 1479.06 2005.79 1478.39 Q2006.52 1477.69 2007.63 1477.69 Q2008.46 1477.69 2009.07 1477.94 Q2009.71 1478.2 2011.2 1479.25 Q2013.59 1480.9 2016.05 1480.9 Q2019.77 1480.9 2022.58 1478.1 Q2025.41 1475.26 2025.41 1471.22 Q2025.41 1467.3 2022.89 1463.92 Q2020.38 1460.51 2015.95 1458.67 Q2012.48 1457.23 2006.49 1457.01 L2014.77 1440.22 L2030.25 1440.22 Z" fill="#000000" fill-rule="nonzero" fill-opacity="1" /><path clip-path="url(#clip110)" d="M2063.8 1439.33 L2063.8 1440.51 Q2059.6 1440.92 2056.92 1442.2 Q2054.28 1443.44 2051.66 1446.02 Q2049.08 1448.6 2047.36 1451.78 Q2045.67 1454.94 2044.53 1459.3 Q2049.11 1456.15 2053.73 1456.15 Q2058.16 1456.15 2061.41 1459.72 Q2064.66 1463.29 2064.66 1468.89 Q2064.66 1474.31 2061.38 1478.77 Q2057.43 1484.18 2050.93 1484.18 Q2046.5 1484.18 2043.41 1481.25 Q2037.36 1475.55 2037.36 1466.47 Q2037.36 1460.67 2039.68 1455.45 Q2042.01 1450.22 2046.31 1446.18 Q2050.64 1442.13 2054.59 1440.73 Q2058.54 1439.33 2061.95 1439.33 L2063.8 1439.33 M2043.99 1461.63 Q2043.41 1465.93 2043.41 1468.57 Q2043.41 1471.63 2044.53 1475.23 Q2045.67 1478.8 2047.9 1480.9 Q2049.53 1482.4 2051.85 1482.4 Q2054.63 1482.4 2056.79 1479.79 Q2058.99 1477.18 2058.99 1472.33 Q2058.99 1466.89 2056.82 1462.9 Q2054.66 1458.92 2050.68 1458.92 Q2049.46 1458.92 2048.06 1459.43 Q2046.69 1459.94 2043.99 1461.63 Z" fill="#000000" fill-rule="nonzero" fill-opacity="1" /><path clip-path="url(#clip110)" d="M2074.82 1444.46 L2085.34 1439.33 L2086.39 1439.33 L2086.39 1475.81 Q2086.39 1479.44 2086.68 1480.33 Q2086.99 1481.22 2087.95 1481.7 Q2088.91 1482.18 2091.84 1482.24 L2091.84 1483.42 L2075.59 1483.42 L2075.59 1482.24 Q2078.65 1482.18 2079.54 1481.73 Q2080.43 1481.25 2080.78 1480.49 Q2081.13 1479.69 2081.13 1475.81 L2081.13 1452.49 Q2081.13 1447.77 2080.81 1446.43 Q2080.59 1445.41 2079.99 1444.93 Q2079.41 1444.46 2078.58 1444.46 Q2077.4 1444.46 2075.3 1445.44 L2074.82 1444.46 Z" fill="#000000" fill-rule="nonzero" fill-opacity="1" /><path clip-path="url(#clip110)" d="M2129.05 1439.33 L2129.05 1440.51 Q2124.84 1440.92 2122.17 1442.2 Q2119.52 1443.44 2116.91 1446.02 Q2114.33 1448.6 2112.61 1451.78 Q2110.92 1454.94 2109.77 1459.3 Q2114.36 1456.15 2118.98 1456.15 Q2123.41 1456.15 2126.66 1459.72 Q2129.91 1463.29 2129.91 1468.89 Q2129.91 1474.31 2126.63 1478.77 Q2122.68 1484.18 2116.18 1484.18 Q2111.75 1484.18 2108.66 1481.25 Q2102.6 1475.55 2102.6 1466.47 Q2102.6 1460.67 2104.93 1455.45 Q2107.26 1450.22 2111.56 1446.18 Q2115.89 1442.13 2119.84 1440.73 Q2123.79 1439.33 2127.2 1439.33 L2129.05 1439.33 M2109.23 1461.63 Q2108.66 1465.93 2108.66 1468.57 Q2108.66 1471.63 2109.77 1475.23 Q2110.92 1478.8 2113.15 1480.9 Q2114.77 1482.4 2117.1 1482.4 Q2119.87 1482.4 2122.04 1479.79 Q2124.24 1477.18 2124.24 1472.33 Q2124.24 1466.89 2122.07 1462.9 Q2119.9 1458.92 2115.92 1458.92 Q2114.71 1458.92 2113.31 1459.43 Q2111.94 1459.94 2109.23 1461.63 Z" fill="#000000" fill-rule="nonzero" fill-opacity="1" /><path clip-path="url(#clip110)" d="M914.187 1520.2 L915.372 1537.83 L914.187 1537.83 Q911.816 1529.91 907.42 1526.43 Q903.023 1522.96 896.868 1522.96 Q891.707 1522.96 887.54 1525.59 Q883.373 1528.19 880.965 1533.93 Q878.594 1539.66 878.594 1548.19 Q878.594 1555.22 880.85 1560.38 Q883.106 1565.54 887.617 1568.3 Q892.166 1571.05 897.977 1571.05 Q903.023 1571.05 906.885 1568.91 Q910.746 1566.73 915.372 1560.31 L916.557 1561.07 Q912.657 1567.99 907.458 1571.2 Q902.259 1574.41 895.11 1574.41 Q882.226 1574.41 875.154 1564.86 Q869.878 1557.74 869.878 1548.11 Q869.878 1540.35 873.357 1533.85 Q876.836 1527.35 882.914 1523.8 Q889.031 1520.2 896.257 1520.2 Q901.877 1520.2 907.343 1522.96 Q908.949 1523.8 909.637 1523.8 Q910.669 1523.8 911.434 1523.07 Q912.428 1522.04 912.849 1520.2 L914.187 1520.2 Z" fill="#000000" fill-rule="nonzero" fill-opacity="1" /><path clip-path="url(#clip110)" d="M938.845 1537.18 Q946.797 1537.18 951.614 1543.22 Q955.705 1548.38 955.705 1555.07 Q955.705 1559.77 953.449 1564.59 Q951.193 1569.4 947.217 1571.85 Q943.28 1574.3 938.425 1574.3 Q930.511 1574.3 925.847 1567.99 Q921.909 1562.68 921.909 1556.06 Q921.909 1551.25 924.279 1546.51 Q926.688 1541.73 930.587 1539.47 Q934.487 1537.18 938.845 1537.18 M937.66 1539.66 Q935.634 1539.66 933.569 1540.89 Q931.543 1542.07 930.282 1545.09 Q929.02 1548.11 929.02 1552.85 Q929.02 1560.5 932.04 1566.04 Q935.098 1571.58 940.068 1571.58 Q943.777 1571.58 946.185 1568.53 Q948.594 1565.47 948.594 1558.01 Q948.594 1548.68 944.58 1543.33 Q941.865 1539.66 937.66 1539.66 Z" fill="#000000" fill-rule="nonzero" fill-opacity="1" /><path clip-path="url(#clip110)" d="M971.073 1544.59 Q977.228 1537.18 982.81 1537.18 Q985.677 1537.18 987.741 1538.63 Q989.806 1540.04 991.029 1543.33 Q991.87 1545.63 991.87 1550.37 L991.87 1565.31 Q991.87 1568.64 992.405 1569.83 Q992.826 1570.78 993.743 1571.32 Q994.699 1571.85 997.222 1571.85 L997.222 1573.23 L979.904 1573.23 L979.904 1571.85 L980.631 1571.85 Q983.077 1571.85 984.033 1571.13 Q985.027 1570.36 985.409 1568.91 Q985.562 1568.33 985.562 1565.31 L985.562 1550.98 Q985.562 1546.2 984.301 1544.06 Q983.077 1541.88 980.134 1541.88 Q975.584 1541.88 971.073 1546.85 L971.073 1565.31 Q971.073 1568.87 971.494 1569.71 Q972.029 1570.82 972.946 1571.35 Q973.902 1571.85 976.769 1571.85 L976.769 1573.23 L959.451 1573.23 L959.451 1571.85 L960.216 1571.85 Q962.892 1571.85 963.809 1570.51 Q964.765 1569.14 964.765 1565.31 L964.765 1552.32 Q964.765 1546.01 964.459 1544.63 Q964.192 1543.26 963.58 1542.76 Q963.006 1542.26 962.012 1542.26 Q960.942 1542.26 959.451 1542.83 L958.878 1541.46 L969.429 1537.18 L971.073 1537.18 L971.073 1544.59 Z" fill="#000000" fill-rule="nonzero" fill-opacity="1" /><path clip-path="url(#clip110)" d="M1010.18 1526.7 L1010.18 1538.21 L1018.36 1538.21 L1018.36 1540.89 L1010.18 1540.89 L1010.18 1563.59 Q1010.18 1567 1011.14 1568.18 Q1012.13 1569.37 1013.66 1569.37 Q1014.92 1569.37 1016.11 1568.6 Q1017.29 1567.8 1017.94 1566.27 L1019.43 1566.27 Q1018.1 1570.02 1015.65 1571.93 Q1013.2 1573.8 1010.6 1573.8 Q1008.84 1573.8 1007.16 1572.85 Q1005.48 1571.85 1004.68 1570.05 Q1003.87 1568.22 1003.87 1564.43 L1003.87 1540.89 L998.331 1540.89 L998.331 1539.62 Q1000.43 1538.78 1002.61 1536.79 Q1004.83 1534.77 1006.55 1532.02 Q1007.43 1530.56 1009 1526.7 L1010.18 1526.7 Z" fill="#000000" fill-rule="nonzero" fill-opacity="1" /><path clip-path="url(#clip110)" d="M1030.67 1518.86 Q1032.28 1518.86 1033.39 1520.01 Q1034.53 1521.12 1034.53 1522.73 Q1034.53 1524.33 1033.39 1525.48 Q1032.28 1526.63 1030.67 1526.63 Q1029.07 1526.63 1027.92 1525.48 Q1026.77 1524.33 1026.77 1522.73 Q1026.77 1521.12 1027.88 1520.01 Q1029.03 1518.86 1030.67 1518.86 M1033.85 1537.18 L1033.85 1565.31 Q1033.85 1568.6 1034.31 1569.71 Q1034.8 1570.78 1035.72 1571.32 Q1036.68 1571.85 1039.16 1571.85 L1039.16 1573.23 L1022.15 1573.23 L1022.15 1571.85 Q1024.71 1571.85 1025.59 1571.35 Q1026.47 1570.86 1026.97 1569.71 Q1027.5 1568.56 1027.5 1565.31 L1027.5 1551.82 Q1027.5 1546.12 1027.16 1544.44 Q1026.89 1543.22 1026.32 1542.76 Q1025.74 1542.26 1024.75 1542.26 Q1023.68 1542.26 1022.15 1542.83 L1021.61 1541.46 L1032.16 1537.18 L1033.85 1537.18 Z" fill="#000000" fill-rule="nonzero" fill-opacity="1" /><path clip-path="url(#clip110)" d="M1053.73 1544.59 Q1059.88 1537.18 1065.46 1537.18 Q1068.33 1537.18 1070.39 1538.63 Q1072.46 1540.04 1073.68 1543.33 Q1074.52 1545.63 1074.52 1550.37 L1074.52 1565.31 Q1074.52 1568.64 1075.06 1569.83 Q1075.48 1570.78 1076.4 1571.32 Q1077.35 1571.85 1079.88 1571.85 L1079.88 1573.23 L1062.56 1573.23 L1062.56 1571.85 L1063.28 1571.85 Q1065.73 1571.85 1066.69 1571.13 Q1067.68 1570.36 1068.06 1568.91 Q1068.22 1568.33 1068.22 1565.31 L1068.22 1550.98 Q1068.22 1546.2 1066.95 1544.06 Q1065.73 1541.88 1062.79 1541.88 Q1058.24 1541.88 1053.73 1546.85 L1053.73 1565.31 Q1053.73 1568.87 1054.15 1569.71 Q1054.68 1570.82 1055.6 1571.35 Q1056.56 1571.85 1059.42 1571.85 L1059.42 1573.23 L1042.1 1573.23 L1042.1 1571.85 L1042.87 1571.85 Q1045.55 1571.85 1046.46 1570.51 Q1047.42 1569.14 1047.42 1565.31 L1047.42 1552.32 Q1047.42 1546.01 1047.11 1544.63 Q1046.85 1543.26 1046.23 1542.76 Q1045.66 1542.26 1044.67 1542.26 Q1043.6 1542.26 1042.1 1542.83 L1041.53 1541.46 L1052.08 1537.18 L1053.73 1537.18 L1053.73 1544.59 Z" fill="#000000" fill-rule="nonzero" fill-opacity="1" /><path clip-path="url(#clip110)" d="M1113.37 1538.21 L1113.37 1559.43 Q1113.37 1565.51 1113.63 1566.88 Q1113.94 1568.22 1114.55 1568.75 Q1115.2 1569.29 1116.04 1569.29 Q1117.23 1569.29 1118.72 1568.64 L1119.25 1569.98 L1108.78 1574.3 L1107.06 1574.3 L1107.06 1566.88 Q1102.55 1571.78 1100.18 1573.04 Q1097.81 1574.3 1095.17 1574.3 Q1092.22 1574.3 1090.05 1572.62 Q1087.9 1570.9 1087.06 1568.22 Q1086.22 1565.54 1086.22 1560.65 L1086.22 1545.01 Q1086.22 1542.53 1085.69 1541.57 Q1085.15 1540.62 1084.08 1540.12 Q1083.05 1539.59 1080.3 1539.62 L1080.3 1538.21 L1092.57 1538.21 L1092.57 1561.64 Q1092.57 1566.54 1094.25 1568.07 Q1095.97 1569.6 1098.38 1569.6 Q1100.02 1569.6 1102.09 1568.56 Q1104.19 1567.53 1107.06 1564.63 L1107.06 1544.78 Q1107.06 1541.8 1105.95 1540.77 Q1104.88 1539.7 1101.44 1539.62 L1101.44 1538.21 L1113.37 1538.21 Z" fill="#000000" fill-rule="nonzero" fill-opacity="1" /><path clip-path="url(#clip110)" d="M1141.66 1568.18 Q1136.27 1572.35 1134.89 1573 Q1132.82 1573.95 1130.49 1573.95 Q1126.86 1573.95 1124.49 1571.47 Q1122.16 1568.98 1122.16 1564.93 Q1122.16 1562.37 1123.31 1560.5 Q1124.87 1557.9 1128.73 1555.6 Q1132.63 1553.31 1141.66 1550.02 L1141.66 1548.65 Q1141.66 1543.41 1139.97 1541.46 Q1138.33 1539.51 1135.16 1539.51 Q1132.75 1539.51 1131.33 1540.81 Q1129.88 1542.11 1129.88 1543.79 L1129.96 1546.01 Q1129.96 1547.77 1129.04 1548.72 Q1128.16 1549.68 1126.71 1549.68 Q1125.29 1549.68 1124.38 1548.68 Q1123.5 1547.69 1123.5 1545.97 Q1123.5 1542.68 1126.86 1539.93 Q1130.22 1537.18 1136.3 1537.18 Q1140.97 1537.18 1143.95 1538.74 Q1146.21 1539.93 1147.28 1542.45 Q1147.96 1544.1 1147.96 1549.18 L1147.96 1561.07 Q1147.96 1566.08 1148.15 1567.23 Q1148.35 1568.33 1148.77 1568.72 Q1149.23 1569.1 1149.8 1569.1 Q1150.41 1569.1 1150.87 1568.83 Q1151.67 1568.33 1153.97 1566.04 L1153.97 1568.18 Q1149.68 1573.92 1145.78 1573.92 Q1143.91 1573.92 1142.8 1572.62 Q1141.69 1571.32 1141.66 1568.18 M1141.66 1565.7 L1141.66 1552.35 Q1135.88 1554.65 1134.2 1555.6 Q1131.18 1557.29 1129.88 1559.12 Q1128.58 1560.96 1128.58 1563.14 Q1128.58 1565.89 1130.22 1567.72 Q1131.87 1569.52 1134.01 1569.52 Q1136.92 1569.52 1141.66 1565.7 Z" fill="#000000" fill-rule="nonzero" fill-opacity="1" /><path clip-path="url(#clip110)" d="M1166.73 1526.7 L1166.73 1538.21 L1174.92 1538.21 L1174.92 1540.89 L1166.73 1540.89 L1166.73 1563.59 Q1166.73 1567 1167.69 1568.18 Q1168.68 1569.37 1170.21 1569.37 Q1171.48 1569.37 1172.66 1568.6 Q1173.85 1567.8 1174.5 1566.27 L1175.99 1566.27 Q1174.65 1570.02 1172.2 1571.93 Q1169.75 1573.8 1167.16 1573.8 Q1165.4 1573.8 1163.71 1572.85 Q1162.03 1571.85 1161.23 1570.05 Q1160.43 1568.22 1160.43 1564.43 L1160.43 1540.89 L1154.88 1540.89 L1154.88 1539.62 Q1156.99 1538.78 1159.17 1536.79 Q1161.38 1534.77 1163.1 1532.02 Q1163.98 1530.56 1165.55 1526.7 L1166.73 1526.7 Z" fill="#000000" fill-rule="nonzero" fill-opacity="1" /><path clip-path="url(#clip110)" d="M1187.23 1518.86 Q1188.83 1518.86 1189.94 1520.01 Q1191.09 1521.12 1191.09 1522.73 Q1191.09 1524.33 1189.94 1525.48 Q1188.83 1526.63 1187.23 1526.63 Q1185.62 1526.63 1184.47 1525.48 Q1183.33 1524.33 1183.33 1522.73 Q1183.33 1521.12 1184.44 1520.01 Q1185.58 1518.86 1187.23 1518.86 M1190.4 1537.18 L1190.4 1565.31 Q1190.4 1568.6 1190.86 1569.71 Q1191.35 1570.78 1192.27 1571.32 Q1193.23 1571.85 1195.71 1571.85 L1195.71 1573.23 L1178.7 1573.23 L1178.7 1571.85 Q1181.26 1571.85 1182.14 1571.35 Q1183.02 1570.86 1183.52 1569.71 Q1184.05 1568.56 1184.05 1565.31 L1184.05 1551.82 Q1184.05 1546.12 1183.71 1544.44 Q1183.44 1543.22 1182.87 1542.76 Q1182.29 1542.26 1181.3 1542.26 Q1180.23 1542.26 1178.7 1542.83 L1178.17 1541.46 L1188.72 1537.18 L1190.4 1537.18 Z" fill="#000000" fill-rule="nonzero" fill-opacity="1" /><path clip-path="url(#clip110)" d="M1217.2 1537.18 Q1225.15 1537.18 1229.97 1543.22 Q1234.06 1548.38 1234.06 1555.07 Q1234.06 1559.77 1231.8 1564.59 Q1229.55 1569.4 1225.57 1571.85 Q1221.63 1574.3 1216.78 1574.3 Q1208.86 1574.3 1204.2 1567.99 Q1200.26 1562.68 1200.26 1556.06 Q1200.26 1551.25 1202.63 1546.51 Q1205.04 1541.73 1208.94 1539.47 Q1212.84 1537.18 1217.2 1537.18 M1216.01 1539.66 Q1213.99 1539.66 1211.92 1540.89 Q1209.9 1542.07 1208.63 1545.09 Q1207.37 1548.11 1207.37 1552.85 Q1207.37 1560.5 1210.39 1566.04 Q1213.45 1571.58 1218.42 1571.58 Q1222.13 1571.58 1224.54 1568.53 Q1226.95 1565.47 1226.95 1558.01 Q1226.95 1548.68 1222.93 1543.33 Q1220.22 1539.66 1216.01 1539.66 Z" fill="#000000" fill-rule="nonzero" fill-opacity="1" /><path clip-path="url(#clip110)" d="M1249.43 1544.59 Q1255.58 1537.18 1261.16 1537.18 Q1264.03 1537.18 1266.09 1538.63 Q1268.16 1540.04 1269.38 1543.33 Q1270.22 1545.63 1270.22 1550.37 L1270.22 1565.31 Q1270.22 1568.64 1270.76 1569.83 Q1271.18 1570.78 1272.1 1571.32 Q1273.05 1571.85 1275.58 1571.85 L1275.58 1573.23 L1258.26 1573.23 L1258.26 1571.85 L1258.98 1571.85 Q1261.43 1571.85 1262.39 1571.13 Q1263.38 1570.36 1263.76 1568.91 Q1263.92 1568.33 1263.92 1565.31 L1263.92 1550.98 Q1263.92 1546.2 1262.65 1544.06 Q1261.43 1541.88 1258.49 1541.88 Q1253.94 1541.88 1249.43 1546.85 L1249.43 1565.31 Q1249.43 1568.87 1249.85 1569.71 Q1250.38 1570.82 1251.3 1571.35 Q1252.26 1571.85 1255.12 1571.85 L1255.12 1573.23 L1237.8 1573.23 L1237.8 1571.85 L1238.57 1571.85 Q1241.25 1571.85 1242.16 1570.51 Q1243.12 1569.14 1243.12 1565.31 L1243.12 1552.32 Q1243.12 1546.01 1242.81 1544.63 Q1242.54 1543.26 1241.93 1542.76 Q1241.36 1542.26 1240.37 1542.26 Q1239.3 1542.26 1237.8 1542.83 L1237.23 1541.46 L1247.78 1537.18 L1249.43 1537.18 L1249.43 1544.59 Z" fill="#000000" fill-rule="nonzero" fill-opacity="1" /><path clip-path="url(#clip110)" d="M1295.42 1541.69 L1306.2 1537.33 L1307.65 1537.33 L1307.65 1545.51 Q1310.37 1540.89 1313.08 1539.05 Q1315.83 1537.18 1318.85 1537.18 Q1324.13 1537.18 1327.65 1541.31 Q1331.97 1546.35 1331.97 1554.46 Q1331.97 1563.52 1326.77 1569.44 Q1322.48 1574.3 1315.98 1574.3 Q1313.16 1574.3 1311.09 1573.5 Q1309.56 1572.92 1307.65 1571.2 L1307.65 1581.87 Q1307.65 1585.46 1308.07 1586.42 Q1308.53 1587.41 1309.6 1587.98 Q1310.71 1588.56 1313.58 1588.56 L1313.58 1589.97 L1295.23 1589.97 L1295.23 1588.56 L1296.18 1588.56 Q1298.28 1588.6 1299.78 1587.76 Q1300.5 1587.33 1300.88 1586.38 Q1301.3 1585.46 1301.3 1581.64 L1301.3 1548.53 Q1301.3 1545.13 1301 1544.21 Q1300.69 1543.29 1300 1542.83 Q1299.35 1542.38 1298.21 1542.38 Q1297.29 1542.38 1295.88 1542.91 L1295.42 1541.69 M1307.65 1547.77 L1307.65 1560.84 Q1307.65 1565.08 1307.99 1566.42 Q1308.53 1568.64 1310.59 1570.32 Q1312.7 1572 1315.87 1572 Q1319.69 1572 1322.06 1569.02 Q1325.16 1565.12 1325.16 1558.05 Q1325.16 1550.02 1321.64 1545.7 Q1319.2 1542.72 1315.83 1542.72 Q1314 1542.72 1312.2 1543.64 Q1310.82 1544.33 1307.65 1547.77 Z" fill="#000000" fill-rule="nonzero" fill-opacity="1" /><path clip-path="url(#clip110)" d="M1356.93 1568.18 Q1351.54 1572.35 1350.16 1573 Q1348.1 1573.95 1345.77 1573.95 Q1342.13 1573.95 1339.76 1571.47 Q1337.43 1568.98 1337.43 1564.93 Q1337.43 1562.37 1338.58 1560.5 Q1340.15 1557.9 1344.01 1555.6 Q1347.91 1553.31 1356.93 1550.02 L1356.93 1548.65 Q1356.93 1543.41 1355.25 1541.46 Q1353.6 1539.51 1350.43 1539.51 Q1348.02 1539.51 1346.61 1540.81 Q1345.15 1542.11 1345.15 1543.79 L1345.23 1546.01 Q1345.23 1547.77 1344.31 1548.72 Q1343.43 1549.68 1341.98 1549.68 Q1340.57 1549.68 1339.65 1548.68 Q1338.77 1547.69 1338.77 1545.97 Q1338.77 1542.68 1342.13 1539.93 Q1345.5 1537.18 1351.58 1537.18 Q1356.24 1537.18 1359.22 1538.74 Q1361.48 1539.93 1362.55 1542.45 Q1363.24 1544.1 1363.24 1549.18 L1363.24 1561.07 Q1363.24 1566.08 1363.43 1567.23 Q1363.62 1568.33 1364.04 1568.72 Q1364.5 1569.1 1365.07 1569.1 Q1365.68 1569.1 1366.14 1568.83 Q1366.95 1568.33 1369.24 1566.04 L1369.24 1568.18 Q1364.96 1573.92 1361.06 1573.92 Q1359.18 1573.92 1358.08 1572.62 Q1356.97 1571.32 1356.93 1568.18 M1356.93 1565.7 L1356.93 1552.35 Q1351.16 1554.65 1349.47 1555.6 Q1346.45 1557.29 1345.15 1559.12 Q1343.85 1560.96 1343.85 1563.14 Q1343.85 1565.89 1345.5 1567.72 Q1347.14 1569.52 1349.28 1569.52 Q1352.19 1569.52 1356.93 1565.7 Z" fill="#000000" fill-rule="nonzero" fill-opacity="1" /><path clip-path="url(#clip110)" d="M1382.08 1537.18 L1382.08 1545.05 Q1386.48 1537.18 1391.11 1537.18 Q1393.21 1537.18 1394.59 1538.48 Q1395.96 1539.74 1395.96 1541.42 Q1395.96 1542.91 1394.97 1543.94 Q1393.97 1544.98 1392.6 1544.98 Q1391.26 1544.98 1389.58 1543.68 Q1387.93 1542.34 1387.13 1542.34 Q1386.44 1542.34 1385.64 1543.1 Q1383.92 1544.67 1382.08 1548.26 L1382.08 1565.05 Q1382.08 1567.95 1382.81 1569.44 Q1383.31 1570.48 1384.57 1571.16 Q1385.83 1571.85 1388.2 1571.85 L1388.2 1573.23 L1370.27 1573.23 L1370.27 1571.85 Q1372.95 1571.85 1374.25 1571.01 Q1375.2 1570.4 1375.59 1569.06 Q1375.78 1568.41 1375.78 1565.35 L1375.78 1551.78 Q1375.78 1545.66 1375.51 1544.52 Q1375.28 1543.33 1374.59 1542.8 Q1373.94 1542.26 1372.95 1542.26 Q1371.76 1542.26 1370.27 1542.83 L1369.89 1541.46 L1380.48 1537.18 L1382.08 1537.18 Z" fill="#000000" fill-rule="nonzero" fill-opacity="1" /><path clip-path="url(#clip110)" d="M1417.75 1568.18 Q1412.36 1572.35 1410.99 1573 Q1408.92 1573.95 1406.59 1573.95 Q1402.96 1573.95 1400.59 1571.47 Q1398.26 1568.98 1398.26 1564.93 Q1398.26 1562.37 1399.4 1560.5 Q1400.97 1557.9 1404.83 1555.6 Q1408.73 1553.31 1417.75 1550.02 L1417.75 1548.65 Q1417.75 1543.41 1416.07 1541.46 Q1414.43 1539.51 1411.25 1539.51 Q1408.85 1539.51 1407.43 1540.81 Q1405.98 1542.11 1405.98 1543.79 L1406.05 1546.01 Q1406.05 1547.77 1405.14 1548.72 Q1404.26 1549.68 1402.81 1549.68 Q1401.39 1549.68 1400.47 1548.68 Q1399.59 1547.69 1399.59 1545.97 Q1399.59 1542.68 1402.96 1539.93 Q1406.32 1537.18 1412.4 1537.18 Q1417.07 1537.18 1420.05 1538.74 Q1422.3 1539.93 1423.37 1542.45 Q1424.06 1544.1 1424.06 1549.18 L1424.06 1561.07 Q1424.06 1566.08 1424.25 1567.23 Q1424.44 1568.33 1424.86 1568.72 Q1425.32 1569.1 1425.9 1569.1 Q1426.51 1569.1 1426.97 1568.83 Q1427.77 1568.33 1430.06 1566.04 L1430.06 1568.18 Q1425.78 1573.92 1421.88 1573.92 Q1420.01 1573.92 1418.9 1572.62 Q1417.79 1571.32 1417.75 1568.18 M1417.75 1565.7 L1417.75 1552.35 Q1411.98 1554.65 1410.3 1555.6 Q1407.28 1557.29 1405.98 1559.12 Q1404.68 1560.96 1404.68 1563.14 Q1404.68 1565.89 1406.32 1567.72 Q1407.97 1569.52 1410.11 1569.52 Q1413.01 1569.52 1417.75 1565.7 Z" fill="#000000" fill-rule="nonzero" fill-opacity="1" /><path clip-path="url(#clip110)" d="M1443.06 1544.63 Q1446.88 1540.81 1447.57 1540.24 Q1449.29 1538.78 1451.28 1537.98 Q1453.27 1537.18 1455.22 1537.18 Q1458.51 1537.18 1460.88 1539.09 Q1463.25 1541 1464.05 1544.63 Q1467.99 1540.04 1470.7 1538.63 Q1473.42 1537.18 1476.28 1537.18 Q1479.07 1537.18 1481.22 1538.63 Q1483.39 1540.04 1484.66 1543.29 Q1485.5 1545.51 1485.5 1550.25 L1485.5 1565.31 Q1485.5 1568.6 1485.99 1569.83 Q1486.38 1570.67 1487.41 1571.28 Q1488.44 1571.85 1490.77 1571.85 L1490.77 1573.23 L1473.49 1573.23 L1473.49 1571.85 L1474.22 1571.85 Q1476.47 1571.85 1477.74 1570.97 Q1478.62 1570.36 1479 1569.02 Q1479.15 1568.37 1479.15 1565.31 L1479.15 1550.25 Q1479.15 1545.97 1478.12 1544.21 Q1476.63 1541.76 1473.34 1541.76 Q1471.31 1541.76 1469.25 1542.8 Q1467.22 1543.79 1464.32 1546.54 L1464.24 1546.96 L1464.32 1548.61 L1464.32 1565.31 Q1464.32 1568.91 1464.7 1569.79 Q1465.12 1570.67 1466.23 1571.28 Q1467.34 1571.85 1470.01 1571.85 L1470.01 1573.23 L1452.31 1573.23 L1452.31 1571.85 Q1455.22 1571.85 1456.29 1571.16 Q1457.4 1570.48 1457.82 1569.1 Q1458.01 1568.45 1458.01 1565.31 L1458.01 1550.25 Q1458.01 1545.97 1456.75 1544.1 Q1455.07 1541.65 1452.05 1541.65 Q1449.98 1541.65 1447.96 1542.76 Q1444.78 1544.44 1443.06 1546.54 L1443.06 1565.31 Q1443.06 1568.75 1443.52 1569.79 Q1444.02 1570.82 1444.93 1571.35 Q1445.89 1571.85 1448.76 1571.85 L1448.76 1573.23 L1431.44 1573.23 L1431.44 1571.85 Q1433.85 1571.85 1434.8 1571.35 Q1435.76 1570.82 1436.26 1569.71 Q1436.75 1568.56 1436.75 1565.31 L1436.75 1551.93 Q1436.75 1546.16 1436.41 1544.48 Q1436.14 1543.22 1435.57 1542.76 Q1435 1542.26 1434 1542.26 Q1432.93 1542.26 1431.44 1542.83 L1430.87 1541.46 L1441.42 1537.18 L1443.06 1537.18 L1443.06 1544.63 Z" fill="#000000" fill-rule="nonzero" fill-opacity="1" /><path clip-path="url(#clip110)" d="M1499.45 1551.4 Q1499.41 1559.2 1503.24 1563.63 Q1507.06 1568.07 1512.22 1568.07 Q1515.66 1568.07 1518.18 1566.19 Q1520.75 1564.28 1522.47 1559.69 L1523.65 1560.46 Q1522.85 1565.7 1518.99 1570.02 Q1515.13 1574.3 1509.31 1574.3 Q1503.01 1574.3 1498.5 1569.4 Q1494.02 1564.47 1494.02 1556.18 Q1494.02 1547.19 1498.61 1542.19 Q1503.24 1537.14 1510.19 1537.14 Q1516.08 1537.14 1519.87 1541.04 Q1523.65 1544.9 1523.65 1551.4 L1499.45 1551.4 M1499.45 1549.18 L1515.66 1549.18 Q1515.47 1545.82 1514.86 1544.44 Q1513.9 1542.3 1511.99 1541.08 Q1510.12 1539.85 1508.05 1539.85 Q1504.88 1539.85 1502.36 1542.34 Q1499.87 1544.78 1499.45 1549.18 Z" fill="#000000" fill-rule="nonzero" fill-opacity="1" /><path clip-path="url(#clip110)" d="M1538.48 1526.7 L1538.48 1538.21 L1546.67 1538.21 L1546.67 1540.89 L1538.48 1540.89 L1538.48 1563.59 Q1538.48 1567 1539.44 1568.18 Q1540.43 1569.37 1541.96 1569.37 Q1543.22 1569.37 1544.41 1568.6 Q1545.59 1567.8 1546.24 1566.27 L1547.74 1566.27 Q1546.4 1570.02 1543.95 1571.93 Q1541.5 1573.8 1538.9 1573.8 Q1537.15 1573.8 1535.46 1572.85 Q1533.78 1571.85 1532.98 1570.05 Q1532.18 1568.22 1532.18 1564.43 L1532.18 1540.89 L1526.63 1540.89 L1526.63 1539.62 Q1528.74 1538.78 1530.91 1536.79 Q1533.13 1534.77 1534.85 1532.02 Q1535.73 1530.56 1537.3 1526.7 L1538.48 1526.7 Z" fill="#000000" fill-rule="nonzero" fill-opacity="1" /><path clip-path="url(#clip110)" d="M1555.96 1551.4 Q1555.92 1559.2 1559.74 1563.63 Q1563.56 1568.07 1568.72 1568.07 Q1572.16 1568.07 1574.69 1566.19 Q1577.25 1564.28 1578.97 1559.69 L1580.15 1560.46 Q1579.35 1565.7 1575.49 1570.02 Q1571.63 1574.3 1565.82 1574.3 Q1559.51 1574.3 1555 1569.4 Q1550.53 1564.47 1550.53 1556.18 Q1550.53 1547.19 1555.11 1542.19 Q1559.74 1537.14 1566.7 1537.14 Q1572.59 1537.14 1576.37 1541.04 Q1580.15 1544.9 1580.15 1551.4 L1555.96 1551.4 M1555.96 1549.18 L1572.16 1549.18 Q1571.97 1545.82 1571.36 1544.44 Q1570.41 1542.3 1568.49 1541.08 Q1566.62 1539.85 1564.56 1539.85 Q1561.38 1539.85 1558.86 1542.34 Q1556.38 1544.78 1555.96 1549.18 Z" fill="#000000" fill-rule="nonzero" fill-opacity="1" /><path clip-path="url(#clip110)" d="M1595.06 1537.18 L1595.06 1545.05 Q1599.46 1537.18 1604.09 1537.18 Q1606.19 1537.18 1607.57 1538.48 Q1608.94 1539.74 1608.94 1541.42 Q1608.94 1542.91 1607.95 1543.94 Q1606.95 1544.98 1605.58 1544.98 Q1604.24 1544.98 1602.56 1543.68 Q1600.91 1542.34 1600.11 1542.34 Q1599.42 1542.34 1598.62 1543.1 Q1596.9 1544.67 1595.06 1548.26 L1595.06 1565.05 Q1595.06 1567.95 1595.79 1569.44 Q1596.29 1570.48 1597.55 1571.16 Q1598.81 1571.85 1601.18 1571.85 L1601.18 1573.23 L1583.25 1573.23 L1583.25 1571.85 Q1585.93 1571.85 1587.23 1571.01 Q1588.18 1570.4 1588.57 1569.06 Q1588.76 1568.41 1588.76 1565.35 L1588.76 1551.78 Q1588.76 1545.66 1588.49 1544.52 Q1588.26 1543.33 1587.57 1542.8 Q1586.92 1542.26 1585.93 1542.26 Q1584.74 1542.26 1583.25 1542.83 L1582.87 1541.46 L1593.46 1537.18 L1595.06 1537.18 Z" fill="#000000" fill-rule="nonzero" fill-opacity="1" /><path clip-path="url(#clip110)" d="M1652.33 1588.56 L1652.33 1589.97 Q1646.56 1587.07 1642.7 1583.17 Q1637.19 1577.62 1634.21 1570.09 Q1631.23 1562.56 1631.23 1554.46 Q1631.23 1542.61 1637.08 1532.86 Q1642.93 1523.07 1652.33 1518.86 L1652.33 1520.47 Q1647.63 1523.07 1644.61 1527.58 Q1641.59 1532.09 1640.1 1539.01 Q1638.61 1545.93 1638.61 1553.46 Q1638.61 1561.64 1639.87 1568.33 Q1640.86 1573.61 1642.28 1576.78 Q1643.69 1579.99 1646.06 1582.94 Q1648.47 1585.88 1652.33 1588.56 Z" fill="#000000" fill-rule="nonzero" fill-opacity="1" /><path clip-path="url(#clip110)" d="M1691.06 1562.22 L1692.44 1562.22 Q1692.44 1568.26 1690.45 1571.01 Q1688.5 1573.76 1685.56 1573.76 Q1683.15 1573.76 1680.93 1571.97 Q1678.71 1570.13 1676.95 1562.22 L1673.67 1547.38 L1662.27 1573.23 L1655.05 1573.23 L1671.41 1537.98 Q1670.11 1531.14 1668.28 1527.85 Q1666.44 1524.56 1663.73 1524.56 Q1661.55 1524.56 1659.9 1526.24 Q1658.3 1527.89 1658.11 1531.37 L1656.73 1531.37 Q1656.84 1525.75 1658.99 1522.38 Q1661.13 1518.98 1664.34 1518.98 Q1666.4 1518.98 1668.24 1520.7 Q1670.11 1522.38 1671.45 1526.51 Q1672.82 1530.6 1675.69 1543.52 L1678.41 1555.64 Q1680.05 1563.17 1681.85 1565.73 Q1683.68 1568.26 1686.21 1568.26 Q1690.49 1568.26 1691.06 1562.22 Z" fill="#000000" fill-rule="nonzero" fill-opacity="1" /><path clip-path="url(#clip110)" d="M1693.81 1520.47 L1693.81 1518.86 Q1699.62 1521.73 1703.49 1525.63 Q1708.95 1531.21 1711.93 1538.74 Q1714.92 1546.24 1714.92 1554.38 Q1714.92 1566.23 1709.07 1575.98 Q1703.26 1585.77 1693.81 1589.97 L1693.81 1588.56 Q1698.52 1585.92 1701.54 1581.41 Q1704.59 1576.94 1706.05 1570.02 Q1707.54 1563.06 1707.54 1555.53 Q1707.54 1547.38 1706.28 1540.66 Q1705.32 1535.38 1703.87 1532.21 Q1702.45 1529.03 1700.08 1526.09 Q1697.71 1523.15 1693.81 1520.47 Z" fill="#000000" fill-rule="nonzero" fill-opacity="1" /><polyline clip-path="url(#clip110)" style="stroke:#000000; stroke-linecap:round; stroke-linejoin:round; stroke-width:4; stroke-opacity:1; fill:none" points="232.038,1410.22 232.038,47.2441 "/>
<polyline clip-path="url(#clip110)" style="stroke:#000000; stroke-linecap:round; stroke-linejoin:round; stroke-width:4; stroke-opacity:1; fill:none" points="232.038,1136.53 250.936,1136.53 "/>
<polyline clip-path="url(#clip110)" style="stroke:#000000; stroke-linecap:round; stroke-linejoin:round; stroke-width:4; stroke-opacity:1; fill:none" points="232.038,589.149 250.936,589.149 "/>
<path clip-path="url(#clip110)" d="M118.58 1127.23 L129.093 1122.1 L130.145 1122.1 L130.145 1158.57 Q130.145 1162.21 130.431 1163.1 Q130.75 1163.99 131.706 1164.47 Q132.662 1164.95 135.593 1165.01 L135.593 1166.19 L119.345 1166.19 L119.345 1165.01 Q122.403 1164.95 123.295 1164.5 Q124.187 1164.02 124.538 1163.26 Q124.888 1162.46 124.888 1158.57 L124.888 1135.25 Q124.888 1130.54 124.57 1129.2 Q124.347 1128.18 123.741 1127.7 Q123.168 1127.23 122.339 1127.23 Q121.161 1127.23 119.058 1128.21 L118.58 1127.23 Z" fill="#000000" fill-rule="nonzero" fill-opacity="1" /><path clip-path="url(#clip110)" d="M145.915 1144.84 Q145.915 1137.45 148.145 1132.13 Q150.375 1126.78 154.07 1124.17 Q156.938 1122.1 159.996 1122.1 Q164.966 1122.1 168.916 1127.16 Q173.854 1133.44 173.854 1144.17 Q173.854 1151.69 171.688 1156.95 Q169.522 1162.21 166.145 1164.6 Q162.8 1166.95 159.678 1166.95 Q153.497 1166.95 149.387 1159.66 Q145.915 1153.51 145.915 1144.84 M152.159 1145.64 Q152.159 1154.56 154.357 1160.2 Q156.173 1164.95 159.773 1164.95 Q161.493 1164.95 163.341 1163.42 Q165.189 1161.86 166.145 1158.22 Q167.61 1152.74 167.61 1142.77 Q167.61 1135.38 166.081 1130.44 Q164.934 1126.78 163.118 1125.25 Q161.812 1124.2 159.964 1124.2 Q157.798 1124.2 156.109 1126.14 Q153.816 1128.79 152.987 1134.46 Q152.159 1140.13 152.159 1145.64 Z" fill="#000000" fill-rule="nonzero" fill-opacity="1" /><path clip-path="url(#clip110)" d="M195.339 1096.1 L195.339 1097.06 Q191.922 1097.4 189.748 1098.43 Q187.599 1099.44 185.477 1101.54 Q183.38 1103.63 181.982 1106.22 Q180.61 1108.78 179.679 1112.33 Q183.406 1109.77 187.159 1109.77 Q190.757 1109.77 193.398 1112.67 Q196.038 1115.57 196.038 1120.12 Q196.038 1124.52 193.372 1128.15 Q190.162 1132.55 184.881 1132.55 Q181.283 1132.55 178.773 1130.17 Q173.854 1125.53 173.854 1118.16 Q173.854 1113.44 175.744 1109.2 Q177.634 1104.95 181.128 1101.67 Q184.649 1098.38 187.858 1097.24 Q191.068 1096.1 193.838 1096.1 L195.339 1096.1 M179.239 1114.22 Q178.773 1117.72 178.773 1119.86 Q178.773 1122.35 179.679 1125.27 Q180.61 1128.17 182.422 1129.88 Q183.743 1131.1 185.632 1131.1 Q187.884 1131.1 189.644 1128.98 Q191.43 1126.85 191.43 1122.92 Q191.43 1118.49 189.67 1115.26 Q187.91 1112.02 184.674 1112.02 Q183.691 1112.02 182.552 1112.43 Q181.439 1112.85 179.239 1114.22 Z" fill="#000000" fill-rule="nonzero" fill-opacity="1" /><path clip-path="url(#clip110)" d="M120.522 579.845 L131.035 574.716 L132.086 574.716 L132.086 611.194 Q132.086 614.826 132.373 615.718 Q132.691 616.61 133.647 617.088 Q134.603 617.566 137.534 617.629 L137.534 618.808 L121.286 618.808 L121.286 617.629 Q124.345 617.566 125.237 617.12 Q126.129 616.642 126.479 615.877 Q126.829 615.081 126.829 611.194 L126.829 587.874 Q126.829 583.159 126.511 581.821 Q126.288 580.801 125.683 580.323 Q125.109 579.845 124.281 579.845 Q123.102 579.845 120.999 580.833 L120.522 579.845 Z" fill="#000000" fill-rule="nonzero" fill-opacity="1" /><path clip-path="url(#clip110)" d="M147.856 597.463 Q147.856 590.072 150.086 584.752 Q152.316 579.399 156.012 576.787 Q158.879 574.716 161.937 574.716 Q166.907 574.716 170.858 579.782 Q175.796 586.058 175.796 596.794 Q175.796 604.313 173.629 609.569 Q171.463 614.826 168.086 617.215 Q164.741 619.573 161.619 619.573 Q155.438 619.573 151.329 612.277 Q147.856 606.129 147.856 597.463 M154.1 598.26 Q154.1 607.18 156.299 612.819 Q158.114 617.566 161.714 617.566 Q163.435 617.566 165.283 616.037 Q167.13 614.475 168.086 610.844 Q169.552 605.364 169.552 595.392 Q169.552 588.001 168.022 583.063 Q166.876 579.399 165.06 577.87 Q163.753 576.819 161.906 576.819 Q159.739 576.819 158.051 578.762 Q155.757 581.406 154.929 587.077 Q154.1 592.748 154.1 598.26 Z" fill="#000000" fill-rule="nonzero" fill-opacity="1" /><path clip-path="url(#clip110)" d="M182.759 566.866 Q178.591 563.449 177.375 561.378 Q176.184 559.307 176.184 557.081 Q176.184 553.664 178.824 551.205 Q181.465 548.72 185.839 548.72 Q190.084 548.72 192.673 551.024 Q195.261 553.328 195.261 556.279 Q195.261 558.246 193.864 560.291 Q192.466 562.336 188.039 565.106 Q192.595 568.626 194.071 570.645 Q196.038 573.285 196.038 576.21 Q196.038 579.912 193.216 582.552 Q190.395 585.166 185.813 585.166 Q180.818 585.166 178.022 582.034 Q175.796 579.524 175.796 576.547 Q175.796 574.217 177.349 571.939 Q178.928 569.635 182.759 566.866 M186.823 564.096 Q189.929 561.301 190.757 559.696 Q191.586 558.065 191.586 556.02 Q191.586 553.302 190.058 551.775 Q188.531 550.222 185.891 550.222 Q183.251 550.222 181.594 551.749 Q179.937 553.276 179.937 555.321 Q179.937 556.667 180.61 558.013 Q181.309 559.359 182.578 560.576 L186.823 564.096 M183.976 567.849 Q181.827 569.661 180.792 571.81 Q179.756 573.932 179.756 576.417 Q179.756 579.756 181.568 581.776 Q183.406 583.769 186.228 583.769 Q189.023 583.769 190.706 582.19 Q192.388 580.611 192.388 578.359 Q192.388 576.495 191.404 575.02 Q189.567 572.276 183.976 567.849 Z" fill="#000000" fill-rule="nonzero" fill-opacity="1" /><path clip-path="url(#clip110)" d="M14.003 969.237 L31.6271 968.052 L31.6271 969.237 Q23.7135 971.608 20.2345 976.004 Q16.7556 980.401 16.7556 986.556 Q16.7556 991.717 19.3935 995.884 Q21.9931 1000.05 27.7276 1002.46 Q33.4621 1004.83 41.9874 1004.83 Q49.0218 1004.83 54.1828 1002.57 Q59.3439 1000.32 62.0965 995.807 Q64.849 991.258 64.849 985.447 Q64.849 980.401 62.7082 976.539 Q60.529 972.678 54.1064 968.052 L54.871 966.867 Q61.7906 970.767 65.002 975.966 Q68.2133 981.165 68.2133 988.314 Q68.2133 1001.2 58.6558 1008.27 Q51.545 1013.55 41.911 1013.55 Q34.1503 1013.55 27.6512 1010.07 Q21.1521 1006.59 17.5967 1000.51 Q14.003 994.393 14.003 987.167 Q14.003 981.548 16.7556 976.081 Q17.5967 974.475 17.5967 973.787 Q17.5967 972.755 16.8703 971.99 Q15.8381 970.996 14.003 970.576 L14.003 969.237 Z" fill="#000000" fill-rule="nonzero" fill-opacity="1" /><path clip-path="url(#clip110)" d="M30.9772 944.579 Q30.9772 936.627 37.0175 931.81 Q42.1786 927.72 48.8689 927.72 Q53.5712 927.72 58.3882 929.975 Q63.2051 932.231 65.6519 936.207 Q68.0986 940.144 68.0986 945 Q68.0986 952.913 61.7906 957.577 Q56.4767 961.515 49.8628 961.515 Q45.0459 961.515 40.3053 959.145 Q35.5266 956.736 33.271 952.837 Q30.9772 948.937 30.9772 944.579 M33.4621 945.764 Q33.4621 947.79 34.6855 949.855 Q35.8706 951.881 38.8908 953.143 Q41.911 954.404 46.6515 954.404 Q54.2975 954.404 59.8409 951.384 Q65.3843 948.326 65.3843 943.356 Q65.3843 939.647 62.3259 937.239 Q59.2674 934.83 51.8126 934.83 Q42.4844 934.83 37.1322 938.845 Q33.4621 941.559 33.4621 945.764 Z" fill="#000000" fill-rule="nonzero" fill-opacity="1" /><path clip-path="url(#clip110)" d="M38.3938 912.351 Q30.9772 906.196 30.9772 900.614 Q30.9772 897.747 32.4299 895.683 Q33.8444 893.618 37.1322 892.395 Q39.426 891.554 44.1666 891.554 L59.1145 891.554 Q62.4405 891.554 63.6257 891.019 Q64.5814 890.598 65.1167 889.681 Q65.6519 888.725 65.6519 886.202 L67.0282 886.202 L67.0282 903.52 L65.6519 903.52 L65.6519 902.794 Q65.6519 900.347 64.9255 899.391 Q64.1609 898.397 62.7082 898.015 Q62.1347 897.862 59.1145 897.862 L44.7782 897.862 Q39.9995 897.862 37.8586 899.123 Q35.6795 900.347 35.6795 903.291 Q35.6795 907.84 40.6494 912.351 L59.1145 912.351 Q62.6699 912.351 63.511 911.931 Q64.6197 911.395 65.1549 910.478 Q65.6519 909.522 65.6519 906.655 L67.0282 906.655 L67.0282 923.973 L65.6519 923.973 L65.6519 923.208 Q65.6519 920.532 64.3138 919.615 Q62.9375 918.659 59.1145 918.659 L46.1163 918.659 Q39.8083 918.659 38.4321 918.965 Q37.0558 919.232 36.5588 919.844 Q36.0618 920.418 36.0618 921.412 Q36.0618 922.482 36.6352 923.973 L35.259 924.546 L30.9772 913.995 L30.9772 912.351 L38.3938 912.351 Z" fill="#000000" fill-rule="nonzero" fill-opacity="1" /><path clip-path="url(#clip110)" d="M63.0905 858.676 Q65.7666 861.237 66.9517 863.684 Q68.0986 866.131 68.0986 868.96 Q68.0986 874.694 63.3198 878.976 Q58.5028 883.258 50.9715 883.258 Q43.4402 883.258 37.2087 878.517 Q30.939 873.777 30.939 866.322 Q30.939 861.696 33.8827 858.676 L27.4218 858.676 Q21.4197 858.676 20.0434 858.982 Q18.6671 859.249 18.1701 859.861 Q17.6731 860.473 17.6731 861.39 Q17.6731 862.384 18.2848 864.028 L16.9467 864.525 L12.665 854.088 L12.665 852.368 L53.1506 852.368 Q59.3057 852.368 60.682 852.1 Q62.02 851.795 62.5552 851.183 Q63.0905 850.533 63.0905 849.692 Q63.0905 848.66 62.4405 846.939 L63.7786 846.519 L68.0986 856.917 L68.0986 858.676 L63.0905 858.676 M60.4144 858.676 L42.3698 858.676 Q39.7701 858.905 37.6292 860.052 Q35.4883 861.199 34.4179 863.111 Q33.3092 864.984 33.3092 866.781 Q33.3092 870.145 36.3294 872.783 Q40.3053 876.262 47.9513 876.262 Q55.6738 876.262 59.8027 872.898 Q63.8933 869.533 63.8933 865.405 Q63.8933 861.926 60.4144 858.676 Z" fill="#000000" fill-rule="nonzero" fill-opacity="1" /><path clip-path="url(#clip110)" d="M12.665 835.356 Q12.665 833.75 13.8119 832.641 Q14.9205 831.494 16.5262 831.494 Q18.1319 831.494 19.2788 832.641 Q20.4257 833.75 20.4257 835.356 Q20.4257 836.961 19.2788 838.108 Q18.1319 839.255 16.5262 839.255 Q14.9205 839.255 13.8119 838.146 Q12.665 837 12.665 835.356 M30.9772 832.183 L59.1145 832.183 Q62.4023 832.183 63.511 831.724 Q64.5814 831.227 65.1167 830.309 Q65.6519 829.354 65.6519 826.869 L67.0282 826.869 L67.0282 843.881 L65.6519 843.881 Q65.6519 841.32 65.1549 840.44 Q64.6579 839.561 63.511 839.064 Q62.3641 838.529 59.1145 838.529 L45.6193 838.529 Q39.923 838.529 38.2409 838.873 Q37.0175 839.14 36.5588 839.714 Q36.0618 840.287 36.0618 841.281 Q36.0618 842.352 36.6352 843.881 L35.259 844.416 L30.9772 833.865 L30.9772 832.183 Z" fill="#000000" fill-rule="nonzero" fill-opacity="1" /><path clip-path="url(#clip110)" d="M20.5021 812.341 L32.0094 812.341 L32.0094 804.16 L34.6855 804.16 L34.6855 812.341 L57.3942 812.341 Q60.7967 812.341 61.9818 811.385 Q63.1669 810.391 63.1669 808.862 Q63.1669 807.601 62.4023 806.416 Q61.5995 805.23 60.0703 804.58 L60.0703 803.089 Q63.8168 804.428 65.7283 806.874 Q67.6016 809.321 67.6016 811.921 Q67.6016 813.679 66.6459 815.361 Q65.6519 817.043 63.8551 817.846 Q62.02 818.649 58.2352 818.649 L34.6855 818.649 L34.6855 824.192 L33.4239 824.192 Q32.5828 822.09 30.5949 819.911 Q28.5687 817.693 25.8161 815.973 Q24.3634 815.094 20.5021 813.526 L20.5021 812.341 Z" fill="#000000" fill-rule="nonzero" fill-opacity="1" /><path clip-path="url(#clip110)" d="M12.665 791.85 Q12.665 790.244 13.8119 789.136 Q14.9205 787.989 16.5262 787.989 Q18.1319 787.989 19.2788 789.136 Q20.4257 790.244 20.4257 791.85 Q20.4257 793.456 19.2788 794.602 Q18.1319 795.749 16.5262 795.749 Q14.9205 795.749 13.8119 794.641 Q12.665 793.494 12.665 791.85 M30.9772 788.677 L59.1145 788.677 Q62.4023 788.677 63.511 788.218 Q64.5814 787.721 65.1167 786.803 Q65.6519 785.848 65.6519 783.363 L67.0282 783.363 L67.0282 800.375 L65.6519 800.375 Q65.6519 797.814 65.1549 796.934 Q64.6579 796.055 63.511 795.558 Q62.3641 795.023 59.1145 795.023 L45.6193 795.023 Q39.923 795.023 38.2409 795.367 Q37.0175 795.635 36.5588 796.208 Q36.0618 796.782 36.0618 797.776 Q36.0618 798.846 36.6352 800.375 L35.259 800.91 L30.9772 790.359 L30.9772 788.677 Z" fill="#000000" fill-rule="nonzero" fill-opacity="1" /><path clip-path="url(#clip110)" d="M30.9772 761.877 Q30.9772 753.926 37.0175 749.109 Q42.1786 745.018 48.8689 745.018 Q53.5712 745.018 58.3882 747.274 Q63.2051 749.529 65.6519 753.505 Q68.0986 757.443 68.0986 762.298 Q68.0986 770.212 61.7906 774.876 Q56.4767 778.813 49.8628 778.813 Q45.0459 778.813 40.3053 776.443 Q35.5266 774.035 33.271 770.135 Q30.9772 766.236 30.9772 761.877 M33.4621 763.063 Q33.4621 765.089 34.6855 767.153 Q35.8706 769.179 38.8908 770.441 Q41.911 771.703 46.6515 771.703 Q54.2975 771.703 59.8409 768.682 Q65.3843 765.624 65.3843 760.654 Q65.3843 756.946 62.3259 754.537 Q59.2674 752.129 51.8126 752.129 Q42.4844 752.129 37.1322 756.143 Q33.4621 758.857 33.4621 763.063 Z" fill="#000000" fill-rule="nonzero" fill-opacity="1" /><path clip-path="url(#clip110)" d="M38.3938 729.649 Q30.9772 723.494 30.9772 717.913 Q30.9772 715.046 32.4299 712.981 Q33.8444 710.917 37.1322 709.693 Q39.426 708.852 44.1666 708.852 L59.1145 708.852 Q62.4405 708.852 63.6257 708.317 Q64.5814 707.897 65.1167 706.979 Q65.6519 706.023 65.6519 703.5 L67.0282 703.5 L67.0282 720.818 L65.6519 720.818 L65.6519 720.092 Q65.6519 717.645 64.9255 716.689 Q64.1609 715.696 62.7082 715.313 Q62.1347 715.16 59.1145 715.16 L44.7782 715.16 Q39.9995 715.16 37.8586 716.422 Q35.6795 717.645 35.6795 720.589 Q35.6795 725.138 40.6494 729.649 L59.1145 729.649 Q62.6699 729.649 63.511 729.229 Q64.6197 728.694 65.1549 727.776 Q65.6519 726.82 65.6519 723.953 L67.0282 723.953 L67.0282 741.271 L65.6519 741.271 L65.6519 740.507 Q65.6519 737.831 64.3138 736.913 Q62.9375 735.957 59.1145 735.957 L46.1163 735.957 Q39.8083 735.957 38.4321 736.263 Q37.0558 736.531 36.5588 737.143 Q36.0618 737.716 36.0618 738.71 Q36.0618 739.78 36.6352 741.271 L35.259 741.845 L30.9772 731.293 L30.9772 729.649 L38.3938 729.649 Z" fill="#000000" fill-rule="nonzero" fill-opacity="1" /><path clip-path="url(#clip110)" d="M38.3938 670.928 Q30.9772 664.773 30.9772 659.191 Q30.9772 656.324 32.4299 654.26 Q33.8444 652.195 37.1322 650.972 Q39.426 650.131 44.1666 650.131 L59.1145 650.131 Q62.4405 650.131 63.6257 649.596 Q64.5814 649.175 65.1167 648.258 Q65.6519 647.302 65.6519 644.779 L67.0282 644.779 L67.0282 662.097 L65.6519 662.097 L65.6519 661.371 Q65.6519 658.924 64.9255 657.968 Q64.1609 656.974 62.7082 656.592 Q62.1347 656.439 59.1145 656.439 L44.7782 656.439 Q39.9995 656.439 37.8586 657.7 Q35.6795 658.924 35.6795 661.868 Q35.6795 666.417 40.6494 670.928 L59.1145 670.928 Q62.6699 670.928 63.511 670.508 Q64.6197 669.972 65.1549 669.055 Q65.6519 668.099 65.6519 665.232 L67.0282 665.232 L67.0282 682.55 L65.6519 682.55 L65.6519 681.785 Q65.6519 679.109 64.3138 678.192 Q62.9375 677.236 59.1145 677.236 L46.1163 677.236 Q39.8083 677.236 38.4321 677.542 Q37.0558 677.809 36.5588 678.421 Q36.0618 678.995 36.0618 679.989 Q36.0618 681.059 36.6352 682.55 L35.259 683.123 L30.9772 672.572 L30.9772 670.928 L38.3938 670.928 Z" fill="#000000" fill-rule="nonzero" fill-opacity="1" /><path clip-path="url(#clip110)" d="M32.0094 611.289 L53.2271 611.289 Q59.3057 611.289 60.682 611.022 Q62.02 610.716 62.5552 610.104 Q63.0905 609.454 63.0905 608.613 Q63.0905 607.428 62.4405 605.937 L63.7786 605.402 L68.0986 615.877 L68.0986 617.597 L60.682 617.597 Q65.5754 622.108 66.837 624.479 Q68.0986 626.849 68.0986 629.487 Q68.0986 632.43 66.4165 634.609 Q64.6961 636.75 62.02 637.591 Q59.3439 638.432 54.4505 638.432 L38.8144 638.432 Q36.3294 638.432 35.3736 638.968 Q34.4179 639.503 33.9209 640.573 Q33.3857 641.606 33.4239 644.358 L32.0094 644.358 L32.0094 632.086 L55.4444 632.086 Q60.3379 632.086 61.8671 630.404 Q63.3963 628.684 63.3963 626.275 Q63.3963 624.631 62.3641 622.567 Q61.3319 620.464 58.4264 617.597 L38.585 617.597 Q35.603 617.597 34.5708 618.706 Q33.5004 619.776 33.4239 623.217 L32.0094 623.217 L32.0094 611.289 Z" fill="#000000" fill-rule="nonzero" fill-opacity="1" /><path clip-path="url(#clip110)" d="M38.4321 592.442 Q34.609 588.619 34.0356 587.931 Q32.5828 586.21 31.78 584.222 Q30.9772 582.234 30.9772 580.285 Q30.9772 576.997 32.8887 574.626 Q34.8002 572.256 38.4321 571.453 Q33.8444 567.516 32.4299 564.801 Q30.9772 562.087 30.9772 559.22 Q30.9772 556.429 32.4299 554.288 Q33.8444 552.109 37.094 550.847 Q39.3113 550.006 44.0519 550.006 L59.1145 550.006 Q62.4023 550.006 63.6257 549.509 Q64.4667 549.127 65.0784 548.095 Q65.6519 547.063 65.6519 544.731 L67.0282 544.731 L67.0282 562.011 L65.6519 562.011 L65.6519 561.284 Q65.6519 559.029 64.7726 557.767 Q64.1609 556.888 62.8228 556.505 Q62.1729 556.352 59.1145 556.352 L44.0519 556.352 Q39.7701 556.352 38.0115 557.385 Q35.5648 558.876 35.5648 562.163 Q35.5648 564.19 36.597 566.254 Q37.591 568.28 40.3436 571.186 L40.7641 571.262 L42.408 571.186 L59.1145 571.186 Q62.7082 571.186 63.5874 570.803 Q64.4667 570.383 65.0784 569.274 Q65.6519 568.166 65.6519 565.489 L67.0282 565.489 L67.0282 583.19 L65.6519 583.19 Q65.6519 580.285 64.9637 579.214 Q64.2756 578.105 62.8993 577.685 Q62.2494 577.494 59.1145 577.494 L44.0519 577.494 Q39.7701 577.494 37.8968 578.755 Q35.4501 580.437 35.4501 583.458 Q35.4501 585.522 36.5588 587.548 Q38.2409 590.721 40.3436 592.442 L59.1145 592.442 Q62.5552 592.442 63.5874 591.983 Q64.6197 591.486 65.1549 590.568 Q65.6519 589.613 65.6519 586.745 L67.0282 586.745 L67.0282 604.064 L65.6519 604.064 Q65.6519 601.655 65.1549 600.699 Q64.6197 599.744 63.511 599.247 Q62.3641 598.75 59.1145 598.75 L45.734 598.75 Q39.9613 598.75 38.2791 599.094 Q37.0175 599.361 36.5588 599.935 Q36.0618 600.508 36.0618 601.502 Q36.0618 602.573 36.6352 604.064 L35.259 604.637 L30.9772 594.086 L30.9772 592.442 L38.4321 592.442 Z" fill="#000000" fill-rule="nonzero" fill-opacity="1" /><path clip-path="url(#clip110)" d="M38.0498 532.344 Q30.9772 527.259 30.9772 521.372 Q30.9772 515.982 35.603 511.967 Q40.1906 507.953 48.1807 507.953 Q57.5089 507.953 63.2051 514.146 Q68.0986 519.46 68.0986 525.998 Q68.0986 529.056 66.9899 532.229 Q65.8813 535.364 63.6639 538.652 L27.3836 538.652 Q21.4197 538.652 20.0434 538.958 Q18.6671 539.225 18.1701 539.837 Q17.6731 540.449 17.6731 541.366 Q17.6731 542.437 18.2848 544.042 L16.9467 544.578 L12.665 534.064 L12.665 532.344 L38.0498 532.344 M40.4965 532.344 L61.4466 532.344 Q63.3581 530.394 64.3521 528.33 Q65.3078 526.227 65.3078 524.048 Q65.3078 520.569 61.4848 517.587 Q57.6618 514.567 50.3598 514.567 Q43.6313 514.567 40.0377 517.587 Q36.4059 520.569 36.4059 524.392 Q36.4059 526.418 37.4381 528.445 Q38.2027 529.974 40.4965 532.344 Z" fill="#000000" fill-rule="nonzero" fill-opacity="1" /><path clip-path="url(#clip110)" d="M45.1988 496.905 Q52.9977 496.943 57.4324 493.12 Q61.8671 489.297 61.8671 484.136 Q61.8671 480.695 59.9938 478.172 Q58.0823 475.611 53.4947 473.89 L54.2593 472.705 Q59.4968 473.508 63.8168 477.369 Q68.0986 481.23 68.0986 487.041 Q68.0986 493.349 63.2051 497.86 Q58.2735 502.333 49.9775 502.333 Q40.9935 502.333 35.9853 497.746 Q30.939 493.12 30.939 486.162 Q30.939 480.275 34.8384 476.49 Q38.6997 472.705 45.1988 472.705 L45.1988 496.905 M42.9814 496.905 L42.9814 480.695 Q39.6172 480.886 38.2409 481.498 Q36.1 482.454 34.8767 484.365 Q33.6533 486.239 33.6533 488.303 Q33.6533 491.476 36.1382 493.999 Q38.585 496.484 42.9814 496.905 Z" fill="#000000" fill-rule="nonzero" fill-opacity="1" /><path clip-path="url(#clip110)" d="M30.9772 457.795 L38.8526 457.795 Q30.9772 453.399 30.9772 448.773 Q30.9772 446.67 32.277 445.294 Q33.5386 443.918 35.2207 443.918 Q36.7117 443.918 37.7439 444.912 Q38.7761 445.906 38.7761 447.282 Q38.7761 448.62 37.4763 450.302 Q36.1382 451.946 36.1382 452.749 Q36.1382 453.437 36.9028 454.24 Q38.4703 455.96 42.0639 457.795 L58.8469 457.795 Q61.7524 457.795 63.2434 457.069 Q64.2756 456.572 64.9637 455.31 Q65.6519 454.049 65.6519 451.679 L67.0282 451.679 L67.0282 469.608 L65.6519 469.608 Q65.6519 466.932 64.8108 465.632 Q64.1991 464.677 62.8611 464.294 Q62.2112 464.103 59.1528 464.103 L45.5811 464.103 Q39.4643 464.103 38.3174 464.371 Q37.1322 464.6 36.597 465.288 Q36.0618 465.938 36.0618 466.932 Q36.0618 468.117 36.6352 469.608 L35.259 469.991 L30.9772 459.401 L30.9772 457.795 Z" fill="#000000" fill-rule="nonzero" fill-opacity="1" /><path clip-path="url(#clip112)" d="M348.681 1334.13 L348.681 1410.22 L380.27 1410.22 L380.27 1334.13 L348.681 1334.13 L348.681 1334.13  Z" fill="#0000ff" fill-rule="evenodd" fill-opacity="1"/>
<polyline clip-path="url(#clip112)" style="stroke:#000000; stroke-linecap:round; stroke-linejoin:round; stroke-width:4; stroke-opacity:1; fill:none" points="348.681,1334.13 348.681,1410.22 380.27,1410.22 380.27,1334.13 348.681,1334.13 "/>
<path clip-path="url(#clip112)" d="M723.798 1320.51 L723.798 1410.22 L755.387 1410.22 L755.387 1320.51 L723.798 1320.51 L723.798 1320.51  Z" fill="#0000ff" fill-rule="evenodd" fill-opacity="1"/>
<polyline clip-path="url(#clip112)" style="stroke:#000000; stroke-linecap:round; stroke-linejoin:round; stroke-width:4; stroke-opacity:1; fill:none" points="723.798,1320.51 723.798,1410.22 755.387,1410.22 755.387,1320.51 723.798,1320.51 "/>
<path clip-path="url(#clip112)" d="M1079.17 1305 L1079.17 1410.22 L1110.76 1410.22 L1110.76 1305 L1079.17 1305 L1079.17 1305  Z" fill="#0000ff" fill-rule="evenodd" fill-opacity="1"/>
<polyline clip-path="url(#clip112)" style="stroke:#000000; stroke-linecap:round; stroke-linejoin:round; stroke-width:4; stroke-opacity:1; fill:none" points="1079.17,1305 1079.17,1410.22 1110.76,1410.22 1110.76,1305 1079.17,1305 "/>
<path clip-path="url(#clip112)" d="M1375.32 1287.03 L1375.32 1410.22 L1406.91 1410.22 L1406.91 1287.03 L1375.32 1287.03 L1375.32 1287.03  Z" fill="#0000ff" fill-rule="evenodd" fill-opacity="1"/>
<polyline clip-path="url(#clip112)" style="stroke:#000000; stroke-linecap:round; stroke-linejoin:round; stroke-width:4; stroke-opacity:1; fill:none" points="1375.32,1287.03 1375.32,1410.22 1406.91,1410.22 1406.91,1287.03 1375.32,1287.03 "/>
<path clip-path="url(#clip112)" d="M1612.23 1265.68 L1612.23 1410.22 L1643.82 1410.22 L1643.82 1265.68 L1612.23 1265.68 L1612.23 1265.68  Z" fill="#0000ff" fill-rule="evenodd" fill-opacity="1"/>
<polyline clip-path="url(#clip112)" style="stroke:#000000; stroke-linecap:round; stroke-linejoin:round; stroke-width:4; stroke-opacity:1; fill:none" points="1612.23,1265.68 1612.23,1410.22 1643.82,1410.22 1643.82,1265.68 1612.23,1265.68 "/>
<path clip-path="url(#clip112)" d="M1829.41 1239.42 L1829.41 1410.22 L1861 1410.22 L1861 1239.42 L1829.41 1239.42 L1829.41 1239.42  Z" fill="#008000" fill-rule="evenodd" fill-opacity="1"/>
<polyline clip-path="url(#clip112)" style="stroke:#000000; stroke-linecap:round; stroke-linejoin:round; stroke-width:4; stroke-opacity:1; fill:none" points="1829.41,1239.42 1829.41,1410.22 1861,1410.22 1861,1239.42 1829.41,1239.42 "/>
<path clip-path="url(#clip112)" d="M1987.35 1205.37 L1987.35 1410.22 L2018.94 1410.22 L2018.94 1205.37 L1987.35 1205.37 L1987.35 1205.37  Z" fill="#008000" fill-rule="evenodd" fill-opacity="1"/>
<polyline clip-path="url(#clip112)" style="stroke:#000000; stroke-linecap:round; stroke-linejoin:round; stroke-width:4; stroke-opacity:1; fill:none" points="1987.35,1205.37 1987.35,1410.22 2018.94,1410.22 2018.94,1205.37 1987.35,1205.37 "/>
<path clip-path="url(#clip112)" d="M2105.81 1157.03 L2105.81 1410.22 L2137.4 1410.22 L2137.4 1157.03 L2105.81 1157.03 L2105.81 1157.03  Z" fill="#008000" fill-rule="evenodd" fill-opacity="1"/>
<polyline clip-path="url(#clip112)" style="stroke:#000000; stroke-linecap:round; stroke-linejoin:round; stroke-width:4; stroke-opacity:1; fill:none" points="2105.81,1157.03 2105.81,1410.22 2137.4,1410.22 2137.4,1157.03 2105.81,1157.03 "/>
<path clip-path="url(#clip112)" d="M2165.04 1073.28 L2165.04 1410.22 L2196.63 1410.22 L2196.63 1073.28 L2165.04 1073.28 L2165.04 1073.28  Z" fill="#008000" fill-rule="evenodd" fill-opacity="1"/>
<polyline clip-path="url(#clip112)" style="stroke:#000000; stroke-linecap:round; stroke-linejoin:round; stroke-width:4; stroke-opacity:1; fill:none" points="2165.04,1073.28 2165.04,1410.22 2196.63,1410.22 2196.63,1073.28 2165.04,1073.28 "/>
<path clip-path="url(#clip112)" d="M2204.52 47.2441 L2204.52 1410.22 L2236.11 1410.22 L2236.11 47.2441 L2204.52 47.2441 L2204.52 47.2441  Z" fill="#ff0000" fill-rule="evenodd" fill-opacity="1"/>
<polyline clip-path="url(#clip112)" style="stroke:#000000; stroke-linecap:round; stroke-linejoin:round; stroke-width:4; stroke-opacity:1; fill:none" points="2204.52,47.2441 2204.52,1410.22 2236.11,1410.22 2236.11,47.2441 2204.52,47.2441 "/>
<circle clip-path="url(#clip112)" style="fill:#009af9; stroke:none; fill-opacity:0" cx="364.476" cy="1334.13" r="2"/>
<circle clip-path="url(#clip112)" style="fill:#009af9; stroke:none; fill-opacity:0" cx="739.593" cy="1320.51" r="2"/>
<circle clip-path="url(#clip112)" style="fill:#009af9; stroke:none; fill-opacity:0" cx="1094.97" cy="1305" r="2"/>
<circle clip-path="url(#clip112)" style="fill:#009af9; stroke:none; fill-opacity:0" cx="1391.11" cy="1287.03" r="2"/>
<circle clip-path="url(#clip112)" style="fill:#009af9; stroke:none; fill-opacity:0" cx="1628.03" cy="1265.68" r="2"/>
<circle clip-path="url(#clip112)" style="fill:#009af9; stroke:none; fill-opacity:0" cx="1845.2" cy="1239.42" r="2"/>
<circle clip-path="url(#clip112)" style="fill:#009af9; stroke:none; fill-opacity:0" cx="2003.15" cy="1205.37" r="2"/>
<circle clip-path="url(#clip112)" style="fill:#009af9; stroke:none; fill-opacity:0" cx="2121.6" cy="1157.03" r="2"/>
<circle clip-path="url(#clip112)" style="fill:#009af9; stroke:none; fill-opacity:0" cx="2180.83" cy="1073.28" r="2"/>
</svg>
